<svg width="29" height="27" viewBox="0 0 29 27" fill="none" xmlns="http://www.w3.org/2000/svg">
<g id="Group 1526">
<path id="Vector" d="M14.5008 22.6002C15.7418 22.6002 16.9706 22.3558 18.1171 21.8809C19.2637 21.406 20.3054 20.7099 21.1829 19.8324C22.0605 18.9548 22.7565 17.9131 23.2314 16.7666C23.7064 15.62 23.9508 14.3912 23.9508 13.1502C23.9508 11.9092 23.7064 10.6804 23.2314 9.53384C22.7565 8.38731 22.0605 7.34555 21.1829 6.46804C20.3054 5.59052 19.2637 4.89444 18.1171 4.41953C16.9706 3.94463 15.7418 3.7002 14.5008 3.7002C11.9945 3.7002 9.59084 4.69582 7.81862 6.46804C6.0464 8.24025 5.05078 10.6439 5.05078 13.1502C5.05078 15.6565 6.0464 18.0601 7.81862 19.8324C9.59084 21.6046 11.9945 22.6002 14.5008 22.6002Z" stroke="#881d91" stroke-width="2" stroke-linecap="square"/>
<path id="Vector_2" d="M19.7628 14.3636C18.8704 14.5696 17.9402 14.5452 17.0599 14.2927C16.1795 14.0402 15.3778 13.5679 14.7302 12.9203C14.0826 12.2727 13.6103 11.471 13.3578 10.5906C13.1053 9.71024 13.0809 8.78011 13.2868 7.8877C11.9986 8.19019 10.8662 8.95495 10.1043 10.0369C9.34249 11.1189 9.00425 12.4429 9.15374 13.7577C9.30323 15.0725 9.93007 16.2867 10.9154 17.1701C11.9006 18.0534 13.1759 18.5444 14.4991 18.55C17.0641 18.55 19.2106 16.7612 19.7628 14.3636Z" stroke="#881d91" stroke-width="2" stroke-linecap="square"/>
<path id="Vector_3" d="M14.5 3.7V1M14.5 25.3V22.6" stroke="#881d91" stroke-width="2" stroke-linecap="square"/>
<path id="Vector_4" d="M5.05 13.1503H1M28 13.1503H23.95M21.1825 6.46784L24.0445 3.60584M21.1825 19.8328L24.0458 22.6962M4.95415 22.6962L7.8175 19.8328L4.9555 22.6948L4.95415 22.6962ZM4.95415 3.60449L7.8175 6.46784L4.9555 3.60584L4.95415 3.60449Z" stroke="#881d91" stroke-width="2" stroke-linecap="square"/>
</g>
</svg>
