<svg width="72" height="66" viewBox="0 0 72 66" fill="none" xmlns="http://www.w3.org/2000/svg">
<circle cx="36" cy="24" r="23.5" stroke="#4DB2FF" stroke-dasharray="2 2"/>
<path d="M15.6746 54.6H16.7186L19.7786 63H18.8846L18.2306 61.2H14.1686L13.5146 63H12.6206L15.6746 54.6ZM14.4746 60.36H17.9186L16.1966 55.632L14.4746 60.36ZM22.9774 63H21.9094L19.7194 56.982H20.6134L22.4434 62.016L24.2734 56.982H25.1674L22.9774 63ZM30.859 57H31.699V63H30.859L30.829 61.884C30.633 62.264 30.359 62.572 30.007 62.808C29.655 63.04 29.235 63.156 28.747 63.156C28.307 63.156 27.895 63.074 27.511 62.91C27.127 62.742 26.789 62.512 26.497 62.22C26.205 61.928 25.977 61.59 25.813 61.206C25.649 60.822 25.567 60.41 25.567 59.97C25.567 59.538 25.647 59.132 25.807 58.752C25.971 58.372 26.195 58.038 26.479 57.75C26.767 57.462 27.099 57.238 27.475 57.078C27.855 56.914 28.261 56.832 28.693 56.832C29.193 56.832 29.629 56.952 30.001 57.192C30.373 57.428 30.669 57.738 30.889 58.122L30.859 57ZM28.729 62.34C29.157 62.34 29.525 62.236 29.833 62.028C30.141 61.816 30.377 61.532 30.541 61.176C30.709 60.82 30.793 60.428 30.793 60C30.793 59.56 30.709 59.164 30.541 58.812C30.373 58.456 30.135 58.174 29.827 57.966C29.519 57.758 29.153 57.654 28.729 57.654C28.305 57.654 27.917 57.76 27.565 57.972C27.217 58.18 26.939 58.462 26.731 58.818C26.527 59.174 26.425 59.568 26.425 60C26.425 60.436 26.531 60.832 26.743 61.188C26.955 61.54 27.235 61.82 27.583 62.028C27.935 62.236 28.317 62.34 28.729 62.34ZM32.8997 57H33.7397V63H32.8997V57ZM33.3257 55.95C33.1897 55.95 33.0737 55.906 32.9777 55.818C32.8857 55.726 32.8397 55.612 32.8397 55.476C32.8397 55.34 32.8857 55.228 32.9777 55.14C33.0737 55.048 33.1897 55.002 33.3257 55.002C33.4577 55.002 33.5697 55.048 33.6617 55.14C33.7577 55.228 33.8057 55.34 33.8057 55.476C33.8057 55.612 33.7597 55.726 33.6677 55.818C33.5757 55.906 33.4617 55.95 33.3257 55.95ZM35.2317 63V54H36.0717V63H35.2317ZM42.402 57H43.242V63H42.402L42.372 61.884C42.176 62.264 41.902 62.572 41.55 62.808C41.198 63.04 40.778 63.156 40.29 63.156C39.85 63.156 39.438 63.074 39.054 62.91C38.67 62.742 38.332 62.512 38.04 62.22C37.748 61.928 37.52 61.59 37.356 61.206C37.192 60.822 37.11 60.41 37.11 59.97C37.11 59.538 37.19 59.132 37.35 58.752C37.514 58.372 37.738 58.038 38.022 57.75C38.31 57.462 38.642 57.238 39.018 57.078C39.398 56.914 39.804 56.832 40.236 56.832C40.736 56.832 41.172 56.952 41.544 57.192C41.916 57.428 42.212 57.738 42.432 58.122L42.402 57ZM40.272 62.34C40.7 62.34 41.068 62.236 41.376 62.028C41.684 61.816 41.92 61.532 42.084 61.176C42.252 60.82 42.336 60.428 42.336 60C42.336 59.56 42.252 59.164 42.084 58.812C41.916 58.456 41.678 58.174 41.37 57.966C41.062 57.758 40.696 57.654 40.272 57.654C39.848 57.654 39.46 57.76 39.108 57.972C38.76 58.18 38.482 58.462 38.274 58.818C38.07 59.174 37.968 59.568 37.968 60C37.968 60.436 38.074 60.832 38.286 61.188C38.498 61.54 38.778 61.82 39.126 62.028C39.478 62.236 39.86 62.34 40.272 62.34ZM47.5007 56.832C48.0847 56.832 48.6147 56.974 49.0907 57.258C49.5707 57.542 49.9527 57.924 50.2367 58.404C50.5207 58.88 50.6627 59.41 50.6627 59.994C50.6627 60.43 50.5807 60.84 50.4167 61.224C50.2527 61.604 50.0247 61.94 49.7327 62.232C49.4447 62.52 49.1087 62.746 48.7247 62.91C48.3447 63.074 47.9367 63.156 47.5007 63.156C47.0047 63.156 46.5767 63.038 46.2167 62.802C45.8567 62.566 45.5727 62.258 45.3647 61.878V63H44.5247V54H45.3647V58.11C45.5727 57.73 45.8567 57.422 46.2167 57.186C46.5767 56.95 47.0047 56.832 47.5007 56.832ZM47.4947 62.334C47.9227 62.334 48.3107 62.23 48.6587 62.022C49.0067 61.81 49.2847 61.526 49.4927 61.17C49.7007 60.814 49.8047 60.422 49.8047 59.994C49.8047 59.554 49.6987 59.158 49.4867 58.806C49.2747 58.45 48.9927 58.168 48.6407 57.96C48.2927 57.752 47.9107 57.648 47.4947 57.648C47.0707 57.648 46.7027 57.754 46.3907 57.966C46.0827 58.178 45.8447 58.462 45.6767 58.818C45.5127 59.174 45.4307 59.566 45.4307 59.994C45.4307 60.43 45.5147 60.826 45.6827 61.182C45.8507 61.534 46.0887 61.814 46.3967 62.022C46.7087 62.23 47.0747 62.334 47.4947 62.334ZM51.638 63V54H52.478V63H51.638ZM56.5163 63.156C55.9643 63.156 55.4603 63.014 55.0043 62.73C54.5523 62.446 54.1903 62.066 53.9183 61.59C53.6503 61.11 53.5163 60.58 53.5163 60C53.5163 59.56 53.5943 59.15 53.7503 58.77C53.9063 58.386 54.1203 58.05 54.3923 57.762C54.6683 57.47 54.9883 57.242 55.3523 57.078C55.7163 56.914 56.1043 56.832 56.5163 56.832C56.9603 56.832 57.3683 56.92 57.7403 57.096C58.1163 57.272 58.4383 57.518 58.7063 57.834C58.9783 58.15 59.1823 58.52 59.3183 58.944C59.4583 59.368 59.5163 59.826 59.4922 60.318H54.4043C54.4523 60.698 54.5723 61.038 54.7643 61.338C54.9603 61.638 55.2083 61.876 55.5083 62.052C55.8123 62.224 56.1483 62.312 56.5163 62.316C56.9163 62.316 57.2763 62.212 57.5963 62.004C57.9203 61.796 58.1803 61.51 58.3763 61.146L59.2283 61.344C58.9883 61.876 58.6263 62.312 58.1423 62.652C57.6583 62.988 57.1163 63.156 56.5163 63.156ZM54.3803 59.64H58.6463C58.6183 59.268 58.5043 58.928 58.3043 58.62C58.1083 58.308 57.8543 58.06 57.5423 57.876C57.2303 57.688 56.8883 57.594 56.5163 57.594C56.1443 57.594 55.8043 57.686 55.4963 57.87C55.1883 58.05 54.9363 58.296 54.7402 58.608C54.5443 58.916 54.4243 59.26 54.3803 59.64Z" fill="black"/>
<path d="M30 24H42" stroke="#0653E4" stroke-width="1.5" stroke-linecap="round" stroke-linejoin="round"/>
<path d="M36 30V18" stroke="#0653E4" stroke-width="1.5" stroke-linecap="round" stroke-linejoin="round"/>
</svg>
