<svg width="72" height="66" viewBox="0 0 72 66" fill="none" xmlns="http://www.w3.org/2000/svg">
<circle cx="36" cy="24" r="23.5" stroke="#4DB2FF" stroke-dasharray="2 2"/>
<path d="M12.7317 63V54.6H15.5097C16.0897 54.6 16.6337 54.71 17.1417 54.93C17.6497 55.146 18.0957 55.448 18.4797 55.836C18.8637 56.22 19.1637 56.666 19.3797 57.174C19.5997 57.678 19.7097 58.22 19.7097 58.8C19.7097 59.38 19.5997 59.924 19.3797 60.432C19.1637 60.936 18.8637 61.382 18.4797 61.77C18.0957 62.154 17.6497 62.456 17.1417 62.676C16.6337 62.892 16.0897 63 15.5097 63H12.7317ZM13.5717 62.16H15.5097C15.9737 62.16 16.4077 62.074 16.8117 61.902C17.2197 61.726 17.5777 61.484 17.8857 61.176C18.1937 60.868 18.4337 60.512 18.6057 60.108C18.7817 59.7 18.8697 59.264 18.8697 58.8C18.8697 58.336 18.7817 57.902 18.6057 57.498C18.4337 57.09 18.1917 56.732 17.8797 56.424C17.5717 56.116 17.2157 55.876 16.8117 55.704C16.4077 55.528 15.9737 55.44 15.5097 55.44H13.5717V62.16ZM20.7473 57H21.5873V63H20.7473V57ZM21.1733 55.95C21.0373 55.95 20.9213 55.906 20.8253 55.818C20.7333 55.726 20.6873 55.612 20.6873 55.476C20.6873 55.34 20.7333 55.228 20.8253 55.14C20.9213 55.048 21.0373 55.002 21.1733 55.002C21.3053 55.002 21.4173 55.048 21.5093 55.14C21.6053 55.228 21.6533 55.34 21.6533 55.476C21.6533 55.612 21.6073 55.726 21.5153 55.818C21.4233 55.906 21.3093 55.95 21.1733 55.95ZM24.8396 63.114C24.5116 63.106 24.1916 63.046 23.8796 62.934C23.5676 62.822 23.2956 62.67 23.0636 62.478C22.8316 62.286 22.6656 62.068 22.5656 61.824L23.2916 61.512C23.3556 61.668 23.4736 61.812 23.6456 61.944C23.8216 62.072 24.0216 62.176 24.2456 62.256C24.4696 62.332 24.6916 62.37 24.9116 62.37C25.1556 62.37 25.3836 62.33 25.5956 62.25C25.8076 62.17 25.9796 62.056 26.1116 61.908C26.2476 61.756 26.3156 61.578 26.3156 61.374C26.3156 61.154 26.2436 60.982 26.0996 60.858C25.9556 60.73 25.7736 60.63 25.5536 60.558C25.3336 60.482 25.1076 60.41 24.8756 60.342C24.4516 60.226 24.0776 60.098 23.7536 59.958C23.4296 59.818 23.1756 59.64 22.9916 59.424C22.8116 59.204 22.7216 58.922 22.7216 58.578C22.7216 58.214 22.8236 57.9 23.0276 57.636C23.2356 57.368 23.5056 57.162 23.8376 57.018C24.1736 56.87 24.5316 56.796 24.9116 56.796C25.3996 56.796 25.8436 56.902 26.2436 57.114C26.6476 57.326 26.9396 57.608 27.1196 57.96L26.4416 58.362C26.3696 58.198 26.2556 58.056 26.0996 57.936C25.9436 57.816 25.7656 57.722 25.5656 57.654C25.3696 57.586 25.1696 57.55 24.9656 57.546C24.7096 57.542 24.4716 57.58 24.2516 57.66C24.0316 57.736 23.8536 57.85 23.7176 58.002C23.5856 58.154 23.5196 58.34 23.5196 58.56C23.5196 58.78 23.5856 58.948 23.7176 59.064C23.8496 59.176 24.0276 59.268 24.2516 59.34C24.4796 59.408 24.7356 59.488 25.0196 59.58C25.3836 59.696 25.7256 59.828 26.0456 59.976C26.3656 60.124 26.6236 60.308 26.8196 60.528C27.0156 60.748 27.1116 61.026 27.1076 61.362C27.1076 61.722 26.9996 62.036 26.7836 62.304C26.5676 62.572 26.2876 62.778 25.9436 62.922C25.5996 63.062 25.2316 63.126 24.8396 63.114ZM28.9819 66H28.1419V57H28.9819V58.122C29.1899 57.742 29.4739 57.434 29.8339 57.198C30.1939 56.962 30.6219 56.844 31.1179 56.844C31.5539 56.844 31.9619 56.926 32.3419 57.09C32.7259 57.254 33.0619 57.482 33.3499 57.774C33.6379 58.062 33.8639 58.396 34.0279 58.776C34.1919 59.156 34.2739 59.564 34.2739 60C34.2739 60.436 34.1919 60.846 34.0279 61.23C33.8639 61.614 33.6379 61.952 33.3499 62.244C33.0619 62.532 32.7259 62.758 32.3419 62.922C31.9619 63.086 31.5539 63.168 31.1179 63.168C30.6219 63.168 30.1939 63.05 29.8339 62.814C29.4739 62.578 29.1899 62.27 28.9819 61.89V66ZM31.1119 57.66C30.6919 57.66 30.3259 57.766 30.0139 57.978C29.7059 58.186 29.4679 58.466 29.2999 58.818C29.1319 59.17 29.0479 59.564 29.0479 60C29.0479 60.428 29.1299 60.82 29.2939 61.176C29.4619 61.532 29.6999 61.816 30.0079 62.028C30.3199 62.24 30.6879 62.346 31.1119 62.346C31.5279 62.346 31.9099 62.242 32.2579 62.034C32.6099 61.826 32.8919 61.546 33.1039 61.194C33.3159 60.838 33.4219 60.44 33.4219 60C33.4219 59.572 33.3179 59.182 33.1099 58.83C32.9019 58.474 32.6239 58.19 32.2759 57.978C31.9279 57.766 31.5399 57.66 31.1119 57.66ZM37.8717 63.156C37.3197 63.156 36.8157 63.014 36.3597 62.73C35.9077 62.446 35.5457 62.066 35.2737 61.59C35.0057 61.11 34.8717 60.58 34.8717 60C34.8717 59.56 34.9497 59.15 35.1057 58.77C35.2617 58.386 35.4757 58.05 35.7477 57.762C36.0237 57.47 36.3437 57.242 36.7077 57.078C37.0717 56.914 37.4597 56.832 37.8717 56.832C38.4237 56.832 38.9257 56.974 39.3777 57.258C39.8337 57.542 40.1957 57.924 40.4637 58.404C40.7357 58.884 40.8717 59.416 40.8717 60C40.8717 60.436 40.7937 60.844 40.6377 61.224C40.4817 61.604 40.2657 61.94 39.9897 62.232C39.7177 62.52 39.3997 62.746 39.0357 62.91C38.6757 63.074 38.2877 63.156 37.8717 63.156ZM37.8717 62.316C38.2797 62.316 38.6457 62.21 38.9697 61.998C39.2977 61.782 39.5557 61.498 39.7437 61.146C39.9357 60.794 40.0317 60.412 40.0317 60C40.0317 59.58 39.9357 59.194 39.7437 58.842C39.5517 58.486 39.2917 58.202 38.9637 57.99C38.6397 57.778 38.2757 57.672 37.8717 57.672C37.4637 57.672 37.0957 57.78 36.7677 57.996C36.4437 58.208 36.1857 58.49 35.9937 58.842C35.8057 59.194 35.7117 59.58 35.7117 60C35.7117 60.432 35.8097 60.824 36.0057 61.176C36.2017 61.524 36.4637 61.802 36.7917 62.01C37.1197 62.214 37.4797 62.316 37.8717 62.316ZM47.12 59.286V63H46.28V59.454C46.28 59.126 46.2 58.828 46.04 58.56C45.88 58.292 45.666 58.078 45.398 57.918C45.13 57.758 44.832 57.678 44.504 57.678C44.18 57.678 43.882 57.758 43.61 57.918C43.342 58.078 43.128 58.292 42.968 58.56C42.808 58.828 42.728 59.126 42.728 59.454V63H41.888V57H42.728V57.828C42.94 57.524 43.216 57.282 43.556 57.102C43.896 56.922 44.266 56.832 44.666 56.832C45.118 56.832 45.53 56.942 45.902 57.162C46.274 57.382 46.57 57.678 46.79 58.05C47.01 58.422 47.12 58.834 47.12 59.286ZM48.3216 57H49.1616V63H48.3216V57ZM48.7476 55.95C48.6116 55.95 48.4956 55.906 48.3996 55.818C48.3076 55.726 48.2616 55.612 48.2616 55.476C48.2616 55.34 48.3076 55.228 48.3996 55.14C48.4956 55.048 48.6116 55.002 48.7476 55.002C48.8796 55.002 48.9916 55.048 49.0836 55.14C49.1796 55.228 49.2276 55.34 49.2276 55.476C49.2276 55.612 49.1816 55.726 49.0896 55.818C48.9976 55.906 48.8836 55.95 48.7476 55.95ZM53.6296 56.832C54.2136 56.832 54.7436 56.974 55.2196 57.258C55.6996 57.542 56.0816 57.924 56.3656 58.404C56.6496 58.88 56.7916 59.41 56.7916 59.994C56.7916 60.43 56.7096 60.84 56.5456 61.224C56.3816 61.604 56.1536 61.94 55.8616 62.232C55.5736 62.52 55.2376 62.746 54.8536 62.91C54.4736 63.074 54.0656 63.156 53.6296 63.156C53.1336 63.156 52.7056 63.038 52.3456 62.802C51.9856 62.566 51.7016 62.258 51.4936 61.878V63H50.6536V54H51.4936V58.11C51.7016 57.73 51.9856 57.422 52.3456 57.186C52.7056 56.95 53.1336 56.832 53.6296 56.832ZM53.6236 62.334C54.0516 62.334 54.4396 62.23 54.7876 62.022C55.1356 61.81 55.4136 61.526 55.6216 61.17C55.8296 60.814 55.9336 60.422 55.9336 59.994C55.9336 59.554 55.8276 59.158 55.6156 58.806C55.4036 58.45 55.1216 58.168 54.7696 57.96C54.4216 57.752 54.0396 57.648 53.6236 57.648C53.1996 57.648 52.8316 57.754 52.5196 57.966C52.2116 58.178 51.9736 58.462 51.8056 58.818C51.6416 59.174 51.5596 59.566 51.5596 59.994C51.5596 60.43 51.6436 60.826 51.8116 61.182C51.9796 61.534 52.2176 61.814 52.5256 62.022C52.8376 62.23 53.2036 62.334 53.6236 62.334ZM57.7669 63V54H58.6069V63H57.7669ZM62.6452 63.156C62.0932 63.156 61.5892 63.014 61.1332 62.73C60.6812 62.446 60.3192 62.066 60.0472 61.59C59.7792 61.11 59.6452 60.58 59.6452 60C59.6452 59.56 59.7232 59.15 59.8792 58.77C60.0352 58.386 60.2492 58.05 60.5212 57.762C60.7972 57.47 61.1172 57.242 61.4812 57.078C61.8452 56.914 62.2332 56.832 62.6452 56.832C63.0892 56.832 63.4972 56.92 63.8692 57.096C64.2452 57.272 64.5672 57.518 64.8352 57.834C65.1072 58.15 65.3112 58.52 65.4472 58.944C65.5872 59.368 65.6452 59.826 65.6212 60.318H60.5332C60.5812 60.698 60.7012 61.038 60.8932 61.338C61.0892 61.638 61.3372 61.876 61.6372 62.052C61.9412 62.224 62.2772 62.312 62.6452 62.316C63.0452 62.316 63.4052 62.212 63.7252 62.004C64.0492 61.796 64.3092 61.51 64.5052 61.146L65.3572 61.344C65.1172 61.876 64.7552 62.312 64.2712 62.652C63.7872 62.988 63.2452 63.156 62.6452 63.156ZM60.5092 59.64H64.7752C64.7472 59.268 64.6332 58.928 64.4332 58.62C64.2372 58.308 63.9832 58.06 63.6712 57.876C63.3592 57.688 63.0172 57.594 62.6452 57.594C62.2732 57.594 61.9332 57.686 61.6252 57.87C61.3172 58.05 61.0652 58.296 60.8692 58.608C60.6732 58.916 60.5532 59.26 60.5092 59.64Z" fill="black"/>
<path d="M30 24H42" stroke="#0653E4" stroke-width="1.5" stroke-linecap="round" stroke-linejoin="round"/>
<path d="M36 30V18" stroke="#0653E4" stroke-width="1.5" stroke-linecap="round" stroke-linejoin="round"/>
</svg>
