<?xml version="1.0" encoding="UTF-8"?>
<svg version="1.1" viewBox="0 0 948 2048" width="1280" height="1280" xmlns="http://www.w3.org/2000/svg">
<path transform="translate(0)" d="m0 0h948v2048h-948z" fill="#4A4844"/>
<path transform="translate(118,1699)" d="m0 0 7 1 5 5h20l14 2 7 2h7l6-3h10l5 4 1 2-1 9-3 4 1 3 11 7 3 6v2l4 2 8 7v2l4 2 9 8 8 7 4 3v2l4 2 14 14 8 12 4 12v13l-7 14-12 12-14 10-8 7-7 11-4 11 2 6 9 14v2l4 2 8 7 11 8 10 10 5 8 3 9v13l-5 12-7 10-9 10-8 7-16 15h-2v2l-11 9-10 9-6 1 5-6 8-7 13-12 8-7 4-2v-2l8-7 2-3h2l2-4 7-9 6-12 2-6v-8h-3l-1-2 2-4-1-5-8-10-10-9-10-8-11-11-11-17-3-2 7-10 9-13 13-12 9-7 8-7 7-10v-7l-7-12-7-10-9-10-8-8-8-7-10-9-17-17-8-7-13-12-7-6-7 13-12 16-9 11-12 14-9 11-13 13-11 8-5 3h-2l3 10 7 11 11 12 7 8 12 13 7 7 7 8 5 5v2l-7 4-9 9-7 8-10 11-9 11-11 14-6 12v2l11 6 10 9 13 13 9 11 12 14 13 17 7 11h-124l2-13 6-25 9-20 4-10v-2l-13-1-6-5-1-7 3-8v-23l6-3h6l5 5 3 22 3 9 15-1 1-5 9-16 11-12 7-8 12-11 11-12 6-6h2v-2l-4-2-16-17-11-12-7-8-8-9-9-14-5-9v-2l-15-1-1 8-5 23-3 5-5 1-7-2-1-1v-23l-3-7v-7l4-5 5-2 18 2-2-3-6-1-3-11-8-18-8-29-3-10-4-3h-10l-2-1-1-7-5-4-1-2v-7l4-4 4-1 5 1 13-9 6-1 17 8 4 1h13l26-2 1-5z" fill="#373E3F"/>
<path transform="translate(443,788)" d="m0 0h13l10 4 8 7 5 10 4 20 5 41v13l-3 10-3 9-1 6 6 5-1 28-4 5-3 3 5 4 2 3 1 10v18l-4 3h-2l3 14 4 11v16l-7 49-4 15-6 8-6 5-8 3h-17l-20-3-11-4-8-7-5-10v-15l6-47 4-17 9-15-2-9-2-6v-9l2-5 1-16-2-13-1-2v-7l3-12h3l-3-6-7-10-3-9-5-32-3-28 1-15 4-8 8-7 9-4 15-3z" fill="#373E3F"/>
<path transform="translate(605,1491)" d="m0 0 5 1 10 10 18 27 7 14-1 4 15 26 9 15 4 9v8l-5 10-9 8-16 8-29 13-36 16-19 7-4 1h-18l-10-5-6-7-9-16-9-19-14-34-8-18-3-9v-5l13-8 18-10 37-18 46-22z" fill="#4B4945"/>
<path transform="translate(537,228)" d="m0 0h14l15 4 26 11 22 10 34 15 11 6 7 6 4 6 2 10-2 8-10 18-16 27-2 10-8 15-14 20-9 10-3 2-17-7-30-15-28-13-38-19-15-9-3-2 2-9 8-19 10-26 8-20 8-17 7-11 8-7z" fill="#4B4945"/>
<path transform="translate(35,838)" d="m0 0 15 1 24 5 15 6 10 9 6 9 1 3v20l-7 36-3 14v15l8 39 2 15v16l-5 9-7 8-10 6-15 5-15 3-6 1h-18l-11-4-8-7-8-16-3-7v-147l5-17 6-10 9-8 8-3z" fill="#373E3F"/>
<path transform="translate(537,225)" d="m0 0h15l16 5 20 8 15 7 40 17 15 8 10 8 6 10 2 5v9l-6 15-13 25-5 10 4 6 3 11-1 11-5 13-8 15-8 12-10 10-10 5-17 5-9 9-9 5-8 2h-16l-12-5-13-8-15-6-14-5-31-14-12-11-6-10-5-16-3-19-11-16-3-9v-12l2-9 7-11 7-7 11-5 15-4 3-7 1-5v-10l-3-7v-6l4-6 5-4 7 1 5 4 3 7 1 13 7-16 9-15 7-7 10-5zm0 3-12 6-8 9-10 19-10 25-10 26-8 19-2 9 16 10 15 8 23 11 71 34 7 2 9-9 16-23 8-15 2-10 13-22 12-21 2-4 1-7-2-9-7-9-11-7-17-8-30-13-24-11-21-8-9-2z" fill="#373E3F"/>
<path transform="translate(563,1440)" d="m0 0h8l10 2 10 5 9 10 18 5 12 6 9 10 8 13 7 14 5 16v11l-4 10-2 2 1 5 17 33 3 9 1 5v10l-5 10-7 7-14 8-26 12-24 10-32 14-13 4-6 1h-8l-11-3-8-6-8-9-8-14-1-4h-4l-1 8-6 7-2 1h-7l-6-5-1-2v-9l2-5v-13l-3-9-6-3-15-4-9-5-7-8-5-10-1-4v-14l4-11 9-13 2-7 2-14 5-15 5-10 9-9 12-7 33-14 20-8 15-9 8-3zm42 51-27 12-30 15-28 13-20 10-17 10-6 4 1 8 6 16 8 17 13 32 10 20 8 12 8 6 5 2h18l18-6 36-16 41-18 12-7 7-7 4-9v-8l-8-16-20-34 1-5-8-15-15-22-9-10-5-4z" fill="#373E3F"/>
<path transform="translate(154)" d="m0 0h60l8 10 8 12 9 10 9 8 10 8 7 7 5 8-1 6-10 16-9 11-20 20-8 7-15 14-12 11-13 12-7 7-4-5-6-11-13-17-18-22-9-10-7-8-10-9-15-9 4-11 9-13 9-10 7-8 14-15 7-8z" fill="#4B4945"/>
<path transform="translate(628,1091)" d="m0 0h5l4 5v10l-2 5 1 6v9l-1 6 8 7 4 5 2 6 9 11 8 5 5 8 5 16-1 6-4 4 1 6 11 16 4 11 10 49 1 6v19l-4 8-6 7-11 6-15 4-16 2h-20l-11-4-6-5-6-10-3-9-3-20-4-36v-15l4-11 5-12-5-2-5-5-1-21 3-7 5-4 5-2 1-11 5-6 10-7 1-4-6-11v-9l4-5 5-3h2l-2-10v-10z" fill="#373E3F"/>
<path transform="translate(630,562)" d="m0 0h11l21 3 15 4 11 6 7 8 3 6v21l-7 37-6 22-5 10-8 11-1 6 5 5-1 9-3 8-4 10-7 6-5 1-2 5-6 7-2 7-8 8-3 2 1 5v9l-2 5 1 4 2 5v9l-4 4h-7l-2-5 1-18-6-3-4-5v-9l5-10 3-5-14-9-3-3-1-3v-9l-6-2-6-5-2-9 1-10v-9l3-3 6-2-2-9-6-13v-14l6-49 4-17 8-13 8-6 5-2z" fill="#373E3F"/>
<path transform="translate(146)" d="m0 0h8l-6 7-10 10-7 8-12 13-13 15-9 14-3 9 11 6 13 11 7 7 9 11 8 9 11 14 13 17 8 14h2l14-14 8-7 16-15 24-22 14-14 10-14 7-12-1-6-7-9-11-10-10-8-9-9-13-19-4-6h10l10 19 9 10 17 12 10 10 5 8 3 9v14l-5 12-7 10-11 12-8 7-7 6h-2v2h-2v2h-2v2l-8 7-10 9-5 4-2 5-8 6-5 3 1 4 3 4 1 4-4 8-4 2h-7l-7-3-5-1-16 4h-28l-5 6h-8l-6-7v-3l-29-2h-9l-10 4-10 5h-7l-9-6-2-2-11-1-4-3v-8l6-8 2-6 4-1h11l3-11 8-30 6-14 4-9v-6h4l-1-4-2 1h-12l-5-3-1-2v-10l2-5v-23l5-3h7l5 8 3 19 2 10 9-2h7l3-9 7-12 11-12 20-20 7-8 7-9h2z" fill="#373E3F"/>
<path transform="translate(634,866)" d="m0 0h17l16 5 11 8 7 9 7 14 2 8v16l-4 15-3 6 6 18 1 5v17l-4 12-6 11-9 10-10 6-12 4h-23l-12-4-10-6-10-9-8-11-6-13-2-6-1-7v-12l2-10v-7l-2-9v-14l4-16 9-16 13-13 10-6 10-4z" fill="#4B4945"/>
<path transform="translate(946,955)" d="m0 0h2v160l-16 7-21 8-4 1h-18l-11-4-8-7-7-10-8-20-5-15-4-14-15-38-1-4v-8l5-4 22-11 28-12 28-13z" fill="#4B4945"/>
<path transform="translate(893,765)" d="m0 0h10l13 3 26 11 6 3v159l-6-2-16-8-25-12-41-18-20-9-8-5-2-2v-7l10-27 9-24 4-15 7-19 7-14 5-6 10-6z" fill="#4B4945"/>
<path transform="translate(131,1139)" d="m0 0 9 1 17 6 10 7 8 10 8 15 3 10v16l-4 9-6 8-8 8-13 8-13 6-13 4-15 3-7 1h-22l-13-3-8-4-7-6-11-17v-2l-4-2-11-1-5-2-1-2v-7l3-3h3l3-11 5-15 4-6 7-7 16-8 13-5 21-6 21-4z" fill="#4B4945"/>
<path transform="translate(91,645)" d="m0 0h11l21 3 20 6 23 12 9 7 7 10 4 9 1 9-2 11-6 15-7 10-7 8-11 7-13 4-6 1h-9l-27-5-30-10-14-7-9-7-6-8-6-15-3-8-7-8 2-5 4-3 13-3 9-14 7-8 10-6 9-3z" fill="#4B4945"/>
<path transform="translate(293,196)" d="m0 0h15l8 4 8 9 8 14 12 23 5 11 2 16 6 2 4 5-1 9 3 6-1 28-2 10-6 12-7 6-10 4-8 1-10-2-8-4-7-6v-2l-4-2-10-6-4-10-4-2-6-12-1-8 3-3-6-5-9-14-12-25-3-9v-15l4-10 7-8 11-7 17-8z" fill="#373E3F"/>
<path transform="translate(327,1541)" d="m0 0h9l10 4 8 7 5 10 3 16 1 12v11l-3 7 1 10-4 5-6 1-1 13-5 12-12 24-10 16-7 7-8 4-3 1h-10l-16-6-19-10-8-9-4-9v-13l3-12 12-25 9-14 3-4v-8l4-10 4-6 4-5 4-8 10-6 10-9 11-5z" fill="#373E3F"/>
<path transform="translate(635,1835)" d="m0 0h23l14 4 12 6 13 11 9 10 8 14 3 9v10l-5 12-7 12-12 13-11 8-14 6-12 3h-18l-13-4-11-6-8-8-7-12-3-9v-39l3-10 6-11 10-10 14-7z" fill="#4B4945"/>
<path transform="translate(226,627)" d="m0 0h10l8 3 6 6 2 7v12l-2 12-7 14-8 8-10 7-6 12h-5l3 5 8 10 3 7v10l-1 16 6 8 1 7-5 7-4 2h-34l-25-5-34-9-23-4-22-6-17-6-17-8-9-7-8-9-5-10-5-16-5-10 1-8 6-7 4-2 8-1 10-14 9-9 12-6 16-4h25l20 4 17 6 15 8 16 12 17 3 3-11 6-15 6-10 8-7zm-135 18-17 3-12 6-8 7-7 11-4 6-13 3-5 4-1 4 8 10 8 21 7 9 11 8 19 8 22 7 27 5h9l16-4 10-5 9-8 7-10 6-12 3-9 1-12-3-11-7-10-5-5-8-6-21-11-20-6-21-3z" fill="#373E3F"/>
<path transform="translate(214,1116)" d="m0 0h10l6 4 4 6-1 8-6 8 1 14v11l-5 9-9 11-1 3 5-1 7 11 7 6 6 4 7 7 5 13 2 12v12l-5 10-8 5-5 1h-7l-10-4-8-9-8-16-4-10-1-5-17 2-14 11-19 9-18 6-17 3h-30l-13-4-10-6-7-6-10-15-1-2-10-2-6-4-2-4v-9l12-29 6-8 5-5 7-6 14-8 14-6 19-6 23-5 22-5 27-7 17-3zm-83 23-21 3-25 6-12 4-20 9-10 9-5 8-7 22v2l-5 1-1 2v7l3 3 3 1 11 1 4 2 2 5 7 11 6 7 9 5 9 3 6 1h22l18-3 14-4 12-5 11-6 9-7 8-8 6-11 1-3v-16l-4-12-8-15-9-10-10-6-15-5z" fill="#373E3F"/>
<path transform="translate(824,891)" d="m0 0h6l26 10 26 12 38 18 28 14v7l-46 23-36 16-21 9-17 6h-4l-7-14-2-8v-20l2-9 3-5-1-5-3-7-2-18 2-14 7-14z" fill="#4B4945"/>
<path transform="translate(556,1444)" d="m0 0h17l13 5 8 6 4 6 1 7-2 3 5 11 1 6-16 9-42 21-23 11-30 14-11 4-7 1-4-4-4-14-1-5v-15l4-11 6-8 11-8 11-6-10 4-15 8-8 9-3-1 2-6 7-7 10-6 15-6 20-9 14-4 13-8z" fill="#4A4844"/>
<path transform="translate(473,348)" d="m0 0 12 3 28 12 90 45-1 7-6 12h3l-1 7-5 8-5 5-10 5-3 1h-16l-10-4-17-10-20-7-36-16-9-7-6-8 1-3 3 2v2l4 2 7 6 24 11-1-1-10-5-11-7-5-4-6-12-2-8v-14l3-12z" fill="#4A4844"/>
<path transform="translate(442,794)" d="m0 0h14l8 4 7 7 3 8 6 47 2 13v12l-6 12-3 14-1 1-46 5-4-2-1-3 2-1-1-7-8-8-4-10-6-45-2-17v-10l4-8 6-5 7-3z" fill="#4A4844"/>
<path transform="translate(423,980)" d="m0 0 15 1 34 4 3 10 2 7 5 7v14l-5 38-3 21-4 11-8 7-5 2h-18l-20-4-10-5-6-8-1-4 1-18 6-49 3-11 8-9 2-1 1-7-1-5z" fill="#4A4844"/>
<path transform="translate(6,895)" d="m0 0h13l5 1 1 11 4 5 9 4 4 1h8l5-3-1-6-10-8-2-2h8l8 3 8 7 5 4 1 5-1 1h-9l7 2 8-2 1-5-7-6 2-1 12 7 7 5-3 23v15l2 15v8l-10 7-7 4-2-1 6-5v-5l-4-2h-10l-2 2 9 1v4l-7 7-8 5-6 2h-7l4-4 7-5 1-6-5-4-9 1-10 3-4 2-2 5-1 9v2l-17 1-2-2-3-32 1-11 4-6 2-4h-2l-5-9v-15l3-24z" fill="#4B4945"/>
<path transform="translate(446,1800)" d="m0 0 5 1 3 4v10l-4 9 2 2v14l6 5 4 11 4 5 5 9 4 2 6 11 6 6v8l-3 5-5 4-3 9-6 4-6 11-3 3-4 11-5 4h-2l2 5v8l-1 4 3 8v10l-4 4-7-1-1-2v-19l-4-2-5-6-1-5 3-8 2-2v-5l-4-2-7-1-5-6-3-6-8-4-5-6-1-9-2-3v-12l4-14 5-5 7-4 5-9 5-4h7l2-1-1-6-3-5-1-6 2-5 7-7 1-18z" fill="#373E3F"/>
<path transform="translate(328,1115)" d="m0 0h11l15 3 8 7 3 7v25l-2 5-4 1 3 17 10-1 5 5 7 14 5 11-1 5-10 7-19 8-15 4-15 2h-11l-6-3-3-6 1-24 2-7 12-6-3-16v-3h-8l-3-7-1-6v-19l4-11 7-8z" fill="#373E3F"/>
<path transform="translate(316,662)" d="m0 0h16l20 4 15 5 16 8 5 5-1 7-9 20-4 5-2 1h-10l-3 15 5 4 1 3 1 19-3 12-6 7-4 2-18 3-11-2-8-6-5-9-2-6v-17l2-11 2-4 7-1 3-19-8-4-4-4-1-3-1-25 3-7z" fill="#373E3F"/>
<path transform="translate(524,503)" d="m0 0h9l9 8 7 11 4 9v18l-4 10-6 11-9 9-9 4-5 1h-10l-7-2v-2h-2l-2 5-6 8-7-1-2-1v-2l-3-1v-2l-3-1-7-8-6-9-3-7v-19l4-9 7-8 8-7 10-9 9-4 6-1z" fill="#4B4945"/>
<path transform="translate(295,202)" d="m0 0h12l6 4 8 9 13 25 8 16 2 10-3 7-6 5-25 13-17 7-5 1-1-4-6-1-5-5-4-5-8-16-8-17-2-6v-13l5-10 7-6 21-11z" fill="#4A4844"/>
<path transform="translate(287,1598)" d="m0 0 7 1 22 10 16 8 9 6 3 5v8l-4 10-13 25-8 13-7 8-6 3h-9l-12-5-17-9-9-7-5-8v-14l6-15 13-27 6-7 7-1z" fill="#4A4844"/>
<path transform="translate(597)" d="m0 0h121l-2 11-5 12-8 11-10 11-8 6-14 7-16 4h-14l-13-3-13-7-8-7-7-11-4-13v-20z" fill="#4B4945"/>
<path transform="translate(714,127)" d="m0 0h25l13 3 10 6 7 8 3 7 1 9v52l-3 9-6 11-1 7 6 5 1 4-5 6 2 12-3 6-5 4-6 3-4 10-6 5-2 11-4 6-6 3h-16l-2-4 3-3 3-1 1-16-9-4-8-6-3-5-10-6-2-3-1-13-1-1v-9l5-4v-10l-4-9-3-5-1-21v-18l1-26 5-10 9-8 11-4zm-1 7-11 3-8 7-4 8-1 6v33l1 25 4 7 4 2 2 10 2 2 52 1 5-12 5-7 2-6v-56l-3-10-5-6-8-5-7-2z" fill="#373E3F"/>
<path transform="translate(717,1582)" d="m0 0h12l7 3 5 6 2 11 7 8 2 7 9 5 5 5 1 3v7l-1 4 4 6-1 6-5 4h-2l4 12 6 11 1 14v46l-2 9-8 11-10 6-13 3h-27l-12-3-6-4-7-7-3-5-1-4v-63l7-15 1-11-4-2-2-3v-7l1-1 1-13 5-6 7-4 5-5 14-9h2l-2-16-5-2v-6zm29 77-13 1h-30l-3 1-2 9-5 4-3 6-1 5v33l1 24 3 9 7 7 9 4 5 1h26l11-3 6-4 7-8 2-9 1-32v-20l-2-8-8-11-2-9z" fill="#373E3F"/>
<path transform="translate(260,1305)" d="m0 0h8l7 3 3 5v10l7 2 4 4 1 4 10 1 10 5 4 7 1 7 6 8v6l-3 3v6l10 12 5 10 9 27 7 24 2 9-1 9-5 9-8 7-11 5-18 6-10 2-11-1-9-4-6-7-6-12-14-41-1-4v-17l3-8-1-5-5-10-5-4-2-6-1-7v-8l5-6h2l-1-5v-7l3-5 13-7v-6l-5-5-9-6-1-4 8-5zm43 67-36 12-8 3 1 9 1 6-5 11v7l5 17 11 32 7 13 6 5 4 2h14l21-5 12-5 5-5 4-7v-12l-14-43-6-18-7-9-3-3h-2l-3-9-1-1z" fill="#373E3F"/>
<path transform="translate(293,400)" d="m0 0 12 1 17 5 16 8 8 8 4 7 1 7-3 15-10 33-6 17-6 10-7 9-1 6 3 4v6l-6 7-1 9-6 7-10 4h-7l-2 6-3 3-7 2-2 10-2 4-9 3-15-2-4-4v-2l10-7 5-5-1-7-11-6-4-6 1-11-4-2-3-4v-9l2-10 8-10 4-8-1-5-3-10 2-16 9-27 9-24 6-8 8-6zm-3 7-8 4-6 8-7 16-11 33-2 9 1 9 3 6v9l-1 8 12 5 34 11 5-1 4-8 8-9 4-8 16-47 3-10v-13l-6-8-8-6-15-5-12-3z" fill="#373E3F"/>
<path transform="translate(418,136)" d="m0 0h18l7 3 3 4 1 26-5 5-5 2 3 15 8 20v11l-4 8-8 7-4 2h-14l-8-4-6-8-5-15-5-25-9-5-4-5-6-18v-8l5-6 9-4 21-4z" fill="#373E3F"/>
<path transform="translate(421,1657)" d="m0 0h9l8 3 7 7 3 9v9l-10 27-1 8 9 6 1 1-1 27-5 5-4 1h-25l-20-4-10-4-6-5-1-9 6-20 4-4 5-2h4l5-26 4-14 6-9 8-5z" fill="#373E3F"/>
<path transform="translate(534,1125)" d="m0 0h7l5 4 1 2v9l-4 6-6 5-8 4-36 54-11 17-10 16-1 3 3 5-2 10-10 16-10 13-5 5-7 6-13 4-8 6-9 6-5-2-3-4v-8l4-5 5-3h3v-12l8-16 14-19 4-5 6-4 13-2 2-4 10-12 13-20 10-15 11-18 8-13 8-16 6-9z" fill="#373E3F"/>
<path transform="translate(756,1066)" d="m0 0h11l6 4 4 6 5 12 11 14 12 15 12 19 8 13 5 11 1 3v13l-3 6-5 5-6 3h-13l-10-6-8-14-9-19-5-11-3-13-4-21-5-5-7-8-3-8v-11l4-6z" fill="#4B4945"/>
<path transform="translate(182,1495)" d="m0 0 7 1 6 4 1 3v11l-4 6-5 7-3 12v5l1 1v7l-6 21-10 27-6 11-5 6-5 3h-13l-9-4-7-8-1-2v-14l5-13 14-29 11-18 6-7 5-5 7-10 7-11z" fill="#4B4945"/>
<path transform="translate(805,706)" d="m0 0h11l8 4 6 7 1 2v14l-9 19-16 25-8 11-5 6-8 11-3 2-6 16-5 5-5 3h-9l-6-7-1-3v-10l4-8 10-12 2-6 3-19 8-21 12-25 7-9 6-4z" fill="#4B4945"/>
<path transform="translate(143,276)" d="m0 0 10 1 6 4 6 7 8 18 9 28 3 17-1 5 4 15 7 9 1 2v12l-8 7h-6l-5-4-7-11-5-9-6-5-9-12-12-22-8-16-5-11-2-8v-11l5-8 6-5z" fill="#4B4945"/>
<path transform="translate(81,82)" d="m0 0 10 1 10 5 10 9 7 6 7 8 8 8 5 7-2 3 4 6 11 9 8 9 6 10 4 11-1 3-11 6-5 2h-9l-12-5-6-5-4-9-11-10v-2l-3-1v-2l-4-2-2-4-4-2-10-14-6-8-11-12-2-6h-2l2-6 11-14z" fill="#4B4945"/>
<path transform="translate(145,1711)" d="m0 0 9 1 15 8-2 8-7 14-11 14-6 3-6 7h-2l-2 4-2 3 5-5h2l-2 5-12 13-7 8-11 11-10 7-6 2h-11l-12-16 1-6 9-12 10-12 8-11 8-8h2l2-4 4-4 1-3h2l2-4 10-13 7-6 7-3z" fill="#4A4844"/>
<path transform="translate(604,622)" d="m0 0h14l-1 3v9l5 5 6 1 4-2h13l-2-10-1-3-4-2v-1l15 1 12 3 15 8 3 2-1 15-3 15-4 10-7 7-4 10-5 1-20-3-28-3-3-1v-10l-3-1-5-13v-18l3-22z" fill="#4B4945"/>
<path transform="translate(655,1203)" d="m0 0h9l4 11v2h3l7 11 3 12 2 13v8l-9 6-11 5-12 3-14 1 1-2h3l2-5 1-2v-6l-2-1-13-2h-7l-4 4-1 2v8l1 3h-14l-1-1-4-30 1-10 4-12 3-2v-9l1-1 35-4z" fill="#4A4844"/>
<path transform="translate(744,1359)" d="m0 0 7 1 9 7 8 7 11 6 3 3 1 6-3 7-3 4-4 16-6 9-9 8-7 3-8 1-13-2-10-4-13-9-7-8 1-10 10-9 3-12 9-10 8-7 9-5z" fill="#373E3F"/>
<path transform="translate(407,581)" d="m0 0 7 1 10 8 8 4 9 3 8 7 11 14 10 15 4 9-1 7-2 6 10 14 13 20 11 18 11 16 10 14 5 6 8 4 7 8 2 8-3 5-1-2 1-7-4-7-5-4-2-1h-6l-3 1-1 3v7l4 6 6 5-3 1-6-5-12-23-15-24-22-34-9-13-9-10-11-2-6-4-8-9-10-14-7-11-2-5-1-12-8-6-3-4v-8z" fill="#373E3F"/>
<path transform="translate(880,1212)" d="m0 0h7l7 3 5 5 4 8 6 27 8 1 4 9 5 9v7l-5 6-16 8-17 5-5 1h-14l-5-4-3-7-2-11v-5l7-4 2-1-2-9-5-16v-15l5-10 7-5z" fill="#373E3F"/>
<path transform="translate(848,1715)" d="m0 0h11l8 4 11 11 5 8 1 4v14l-6 7-10 4-10 9-4 2-3-2-6 8-6 1-9 2-7 7-9 11-12 12-7 9-3 2-7-1-1-1v-6l8-11 10-16 11-14 3-4h2l-2-4 1-7 4-7 5-4-2-5-2-2 1-7 14-17 8-6z" fill="#373E3F"/>
<path transform="translate(789,68)" d="m0 0 4 1 11 12 7 8 10 11 7 8 4 2h7l8 4 2 5 2 2 2-2 4 1 12 11 9 3 5 5 1 3v13l-5 10-8 9-9 6-11 2-8-2-8-7-8-10-5-7 1-7 3-3-2-4-6-7-2-6 1-5 1-3-4-2-15-20-10-16-5-7 1-5z" fill="#373E3F"/>
<path transform="translate(872,595)" d="m0 0 17 2 16 5 14 7 6 5 1 2-1 9-4 6-1 5-4 4h-7l-4 19-3 12-5 8-8 5h-11l-9-4-6-7-2-5v-15l7-21v-4l-8-4-1-1 1-12 3-10 6-5z" fill="#373E3F"/>
<path transform="translate(402)" d="m0 0h85v7l-3 5-5 3-3 9-4 2-2 2-5 10-4 4-4 10-6 5 1 6v8l-1 5 3 5v11l-4 4h-5l-3-3-1-18-7-7-2-6 1-6 4-6v-5l-2-1-10-1-4-6-3-7-10-4-3-4-1-9-2-3z" fill="#373E3F"/>
<path transform="translate(924,426)" d="m0 0 11 4 8 6 5 5-1 8-12 23-14 24-12 20-7 8-2 1h-7l-16-8-4-4 1-8 13-24 9-16 10-19 9-11z" fill="#4B4945"/>
<path transform="translate(80,1974)" d="m0 0h11l10 5 10 9 15 15 7 8 4 5v3h-2l4 6 13 11 8 10v2h-50l-7-8v-2h-2l-9-11-10-14-9-10-7-10 4-7 9-11z" fill="#4B4945"/>
<path transform="translate(789,1959)" d="m0 0 4 1 9 10 7 8 8 8 11 14 3 2 6-1 6 2 4 3 3 6 6-2 5 5 9 7 8 3 6 6v17h-61l-1-4 3-6v-4l-5-5-4-7 1-7v-3l-9-10-10-14-9-14-5-6 1-6z" fill="#373E3F"/>
<path transform="translate(350,49)" d="m0 0 12 1 11 6 7 9 3 9v11l-3 8-7 8-5 4-6 4-5 5-5-1-6-8-8 3-10-5-6-9-2-7v-8l5-10 1-5 5-7 10-6z" fill="#4B4945"/>
<path transform="translate(354,1783)" d="m0 0 5 1 4 5 10 6 6 7 4 11v12l-4 8-8 9-8 4-4 1h-13l-10-4-8-7-6-12-1-3v-15l4-8 5-5 5-3h8l4 2 2-5z" fill="#4B4945"/>
<path transform="translate(346,1941)" d="m0 0h14l8 3 8 7 6 10 1 4v12l-4 10-9 8-8 4-2 4-3 2-5-1-5-7-4 1h-7l-7-4-5-6-3-7-1-11 5-13 7-9 7-5z" fill="#4B4945"/>
<path transform="translate(48,1706)" d="m0 0 5 2 10 6 6 2h13l14-1h15l3 2-1 5-12 14-13 17-13 21-9 13-4-1-3-7-8-38-3-5-8-4-8-1 6-7 8-16z" fill="#4B4945"/>
<path transform="translate(63,110)" d="m0 0 4 2 9 12 11 18 21 27 7 8-3 4h-45l-9 4-7 5-5-1-7-15-2-4-4-4 1-1 10-2 5-5 3-7 3-14 3-16 4-10z" fill="#4B4945"/>
<path transform="translate(164,1309)" d="m0 0 7 2 5 6 1 9-7 14-2 28-3 14-3 5-10 36-6 12-3 2-9-2-6-5-1-2v-7l8-30 12-36 5-16 1-5 1-15 3-6 4-3z" fill="#4B4945"/>
<path transform="translate(43,1448)" d="m0 0h20l6 4 6 9 8 7 1 2-1 24-2 10-4 8-9 10-12 6-10 1-10-1-12-4-11-7-9-8-4-2v-24l5-5 9-10 12-12 8-5zm6 10-6 7-6 13-4-5-2-1h-9l-5 4-2 4v9l1 3-5 3-2 5 2 4 2 1h12l2-4-1-2 2 1-3 9-1 5 5 4 9 3h14l10-4 7-7 4-8 1-3v-9l-3-9-6-8-6-4-4-7-4-4z" fill="#373E3F"/>
<path transform="translate(37,367)" d="m0 0h16l9 4 8 6 6 7 4 8 3 10 1 25-4 5-8 6-6 8-3 2h-7l-15-2-12-5-10-8-10-10-9-11v-22l5-3 9-8 13-8zm1 9-11 4-4 2 1 5 1 4h-8l-7 2-1 3 3 6 6 2-3 6v7l3 5 5 3h6l7-4v-2h2l3 9 5 8 2 2h5l6-10 5-4 6-7 4-11-1-11-5-10-9-7-6-2z" fill="#373E3F"/>
<path transform="translate(784,582)" d="m0 0h10l9 3 9 8 4 9 1 11-4 10-6 7-8 4-3 1-5 9-5 1-3-6-3-10-4 2h-6l-5-3-3-6-1-11 3-7v-1h-2l1-6 7-9 10-5z" fill="#4B4945"/>
<path transform="translate(186,1127)" d="m0 0h19l7 9 7 4 2 16-1 9-6 8-6 5-2 4v16l-10 9-2-2-3-19-5-15-8-15-11-12-10-6-4-2 4-2z" fill="#4B4945"/>
<path transform="translate(226,631)" d="m0 0h10l8 6 4 5v14l-6 17-6 9-13 13-5 11-4-2-11-9-7-8-2-2 1-6 7-11 2-3 4-13 6-12 7-7z" fill="#4B4945"/>
<path transform="translate(194,691)" d="m0 0 6 3 5 6 1 13 3 6 7 5 4 8v21l-1 3-8 6-5 8h-14l-20-4-17-5 3-3 13-9 8-10 7-12 5-15z" fill="#4B4945"/>
<path transform="translate(334,1768)" d="m0 0h13l13 4 13 7 10 9 6 12 2 9v16l-4 9-6 9-7 7-10 5-14 1-16-4-8-6-7-9-5-10-1-4v-15l2-9 8-17 3-8 6-5zm20 15-6 5-1 4-4-2h-8l-8 5-4 6-2 5v15l5 12 8 9 8 4 4 1h13l9-3 9-8 5-8 1-3v-12l-4-11-6-7-10-6-4-5z" fill="#373E3F"/>
<path transform="translate(216,1191)" d="m0 0 4 4 4 8 12 11 8 16 4 11v12l-6 9-5 3-10 1-8-4-6-8-5-11-6-15-8-13 1-5 15-15z" fill="#4B4945"/>
<path transform="translate(345,1932)" d="m0 0h17l10 4 10 9 8 16 1 3v20l-7 14-12 11-16 8-7 2h-14l-5-3-13-23-4-11v-18l3-9 8-11 8-7 9-4zm1 9-9 3-8 7-5 9-4 10 1 11 5 10 7 6 3 1h7l4-1 5 7 5 1 7-7 10-6 6-7 3-8v-12l-4-10-8-9-7-4-4-1z" fill="#373E3F"/>
<path transform="translate(343,41)" d="m0 0h17l9 3 10 7 7 9 4 8 1 12v12l-3 9-6 8-9 8-10 6-10 4-16 2-8-4-4-7-4-10-6-13-2-8v-17l5-10 9-10 8-6zm7 8-9 2-10 6-6 8-1 5-4 9v8l4 11 4 5 10 5 8-3 6 8 5 1 5-5 10-7 7-7 3-6 1-4v-11l-4-11-6-7-11-6z" fill="#373E3F"/>
<path transform="translate(421,1659)" d="m0 0h10l8 4 6 8 1 3v12l-7 17-4 13-1 5-25-4-11-3-1-1 1-12 5-23 6-12 6-5z" fill="#4B4945"/>
<path transform="translate(423,177)" d="m0 0h11l5 17 6 14 1 3v10l-3 7-5 6-9 4h-7l-8-3-8-9-5-15-3-17v-10l8-5z" fill="#4B4945"/>
<path transform="translate(727,2018)" d="m0 0 15 1 13 4 8 5v2h2l5 8 3 10h-90l3-10 6-9 7-6 7-3 5-1z" fill="#4B4945"/>
<path transform="translate(745,1372)" d="m0 0 5 2 6 7 1 3h5l3 3 2 9v8l-2 9-5 8-6 5-5 2h-16l-8-4-4-3-10-5-5-5-1-5 5-5 14-6 6-1 6-11 7-9z" fill="#4B4945"/>
<path transform="translate(735,468)" d="m0 0h11l8 3 8 7 4 9 1 12-2 10-3 4-5 1-8 10-4 1-7-9-7-12v-2l-11-2-13-7-2-2 1-5 5-5 10-6 8-5z" fill="#4B4945"/>
<path transform="translate(736,459)" d="m0 0 13 1 10 4 8 6 6 10 1 2 1 13 5 9v8l-5 5-11 7-11 11-5 2-6-1-11-6-8-7-7-10-6-12-5-7-4-8 1-5 7-8 15-10zm-1 9-9 4-14 8-5 4-2 3 1 5 8 5 9 4 8 1 2 6 10 15 2 2 4-1 8-10 6-2 3-6 1-9-2-13-5-8-7-6-7-2z" fill="#373E3F"/>
<path transform="translate(859)" d="m0 0h89v37l-10 1-8-2-16-7-27-14-23-11-6-2z" fill="#4B4945"/>
<path transform="translate(473,295)" d="m0 0h6l5 8-1 7-12 25-9 25-5-2-13-10-6-7-2-6v-11l4-10 6-8 9-6z" fill="#4B4945"/>
<path transform="translate(460,1536)" d="m0 0h2l10 28 11 22v10l-3 5-3 1-19-5-10-6-7-7-4-7-1-4v-13l4-8 10-9z" fill="#4B4945"/>
<path transform="translate(782,1246)" d="m0 0h8l13 5 11 8 7 9 4 13v11l-5 13-9 10-7 4-9 3h-13l-10-3-9-6-7-9-3-6-1-5v-11l2-12 7-10 9-8zm5 5-4 6-4 10-4-2-7 1-5 7-2 7 1 10 3 3-3 1 1 6 7 8 5 4 9 3 12-1 10-4 7-8 4-11-1-11-5-8-9-8-6-4-6-8z" fill="#373E3F"/>
<path transform="translate(55,1341)" d="m0 0 6 2 5 5 7 3 2 3v13l-4 13-7 9-5 4-6 2h-7l-9-4-8-7-6-8-1-2v-6l4-5 4-2 11-1 7-13z" fill="#4B4945"/>
<path transform="translate(782,574)" d="m0 0h11l10 3 10 6 6 7 5 11 1 4v11l-5 12-4 6-7 7-8 5-12 4-8-1-9-4-9-6-7-10-3-8-1-6 1-18 6-9 8-8 10-5zm2 8-11 4-5 4-5 7-1 6h4l-4 4-1 8 2 10 5 5 2 1h6l4-2 4 13 2 3 5-1 5-9 9-4 7-6 4-8 1-9-2-9-5-8-7-6-9-3z" fill="#373E3F"/>
<path transform="translate(46,502)" d="m0 0h7l7 2 8 8 5 11 2 8v13l-3 3-6 2-7 6-7-1-7-9-5-9-11-1-5-3-2-3v-6l6-10 10-8z" fill="#4B4945"/>
<path transform="translate(873,629)" d="m0 0 25 7 9 3-4 19-2 10-4 8-6 5-4 2h-7l-10-4-6-8-2-7v-7l5-16z" fill="#4B4945"/>
<path transform="translate(452,1241)" d="m0 0h10l8 7 1 1-1 9-10 15-14 17-5 5-8 5-10-1-4 1-3-4v-8l10-17 12-17 9-10z" fill="#4B4945"/>
<path transform="translate(879,1214)" d="m0 0h8l7 3 5 6 3 8 4 26-7 3-23 7h-4l-7-17-3-12 1-10 7-10z" fill="#4B4945"/>
<path transform="translate(419,596)" d="m0 0 4 2 12-1 8 7 7 7 12 16 8 13 1 6-3 6-7 4-5 1-8-4-9-9-12-17-10-15-1-2 1-10z" fill="#4B4945"/>
<path transform="translate(50,1329)" d="m0 0 7 1 15 8 12 5 2 2-1 7-6 10-3 20-5 10-4 5-5 3-12 2h-8l-12-4-9-8-5-10-1-3v-9l3-7 7-6 5-5 4-9 5-5zm5 12-7 6-7 13-11 1-6 4-2 3v6l6 9 7 7 8 4 3 1h7l8-3 8-9 4-8 2-8v-13l-5-5-4-1-5-5z" fill="#373E3F"/>
<path transform="translate(351,292)" d="m0 0 3 1 4 9-7 3-8 3v2 7l-3 1-9 2-11 3-5 2-1 5 17-7 4 1-1 4 1 2-16 10 9-3 15-6h5l-1 3-14 6-16 8-6-2v-2l3-3-9-2-1-3 5-3-1-4-8 3h-4l-1-7 3-4h-7l-1-4 5-6 11-5 25-7z" fill="#4A4844"/>
<path transform="translate(823,843)" d="m0 0h5l2 13v7l-7 16-6 13-4 19-2 5-5-3-8-8-5-10-1-4v-12l4-11 6-10 5-6 11-7z" fill="#4A4844"/>
<path transform="translate(810,980)" d="m0 0 1 3-1 2h2l4 16 5 12 7 15 1 2v19l-1 5-9-3-10-6-8-9-7-12-2-7v-8l3-12 6-9z" fill="#4A4844"/>
<path transform="translate(40,495)" d="m0 0h17l8 3 7 8 4 11 2 16 3 8 4 4v5l-6 5-9 3-11 8-7 1-16-8-6-14-9-9v-2h-2l-1-9-1-12 6-9 10-7zm6 7-9 4-9 7-6 10v6l4 5 11 2 4 1 6 11 5 6 7 1 8-7 6-2 2-2v-13l-4-13-5-8-8-7-5-1z" fill="#373E3F"/>
<path transform="translate(453,931)" d="m0 0h19l9 1 1 7-2 2-4-1-2-4-5-1 4 4v3l-3 2 2 2-1 7-1 2h3l-1 4h-3v2l5-1 3-4 5 2v5l-3 2-13 1-2 1-15-1-25-3-5-2 1-7 4-4 39 2v-6l-1-1-39 1-4-5v-5l7-2z" fill="#4B4945"/>
<path transform="translate(647,357)" d="m0 0 4 2 4 7v7l-7 17-9 19-7 10-8 7-10 4-13 2 4-17 4-5 7-6 10-16 10-14 7-11z" fill="#4B4945"/>
<path transform="translate(141,274)" d="m0 0h10l7 3 5 4 6 10 11 29 7 21 3 16 1 14 6 8 2 10-2 7v6l8 10 3 7v9l-3 5-5 3-7-1-6-7-3-8 1-14-5-2-5-4-12-18-8-10-9-14-11-21-11-23-3-10v-12l5-10 8-6zm2 2-9 3-8 7-3 6v11l4 13 8 17 12 22 8 12 4 5 6 5 10 17 5 6 2 1h6l8-7v-12l-4-6-4-5-4-15 1-7-4-19-10-29-8-16-8-7-6-2z" fill="#373E3F"/>
<path transform="translate(602,1465)" d="m0 0 14 2 8 4 7 6 7 10 9 17 7 18v10l-5 8-5-5-12-18-11-16-5-9-10-9-2-6z" fill="#4B4945"/>
<path transform="translate(196,1460)" d="m0 0 5 1 5 4 2 5v7l-4 9-5 5-2 9 1 1v15l-7 10-2 18-4 19-10 28-7 17-7 9-8 5-8 1-9-2-8-5-6-8-1-3v-10l4-13 16-35 9-15 8-11 3-5 4-4 9-14 7-6 3-1v-12l2-9 4-6zm-14 35-7 8-10 16-4 5-5 5-5 6-10 17-9 19-7 15-2 6v14l6 8 5 4 6 2h13l8-6 6-10 10-25 6-19 2-8v-7l-1-1 1-9 3-10 7-9 1-2v-11l-2-4-7-4z" fill="#373E3F"/>
<path transform="translate(705,252)" d="m0 0h31l17 3 8 4 1 7-2 4-5 1-3-2-1-3-11-2 9 4-2 4-2 1-4-1 6 8-1 6-5 4-3-1-6-7-12-5-14-3-10-8-3-4 1-5 3-3z" fill="#4B4945"/>
<path transform="translate(740,1606)" d="m0 0 5 4 2 3-1 5-3 3-1 3 5-1 1 5-5 3-9 3 9-2h8l2-5 5-1 3 4v7l-4 3-18 4-18 1-19-1-7-3-1-2v-6l10-10 22-5 9-6z" fill="#4A4844"/>
<path transform="translate(371,1187)" d="m0 0 2 1 3 10v7l-7 6-17 8-18 5-6 1h-11l-1-5 2-7-1-9-1-5 5-2 36-7h5l4 10 3 1v3h2v2l2-1-1-8z" fill="#4B4945"/>
<path transform="translate(838)" d="m0 0h21l3 2 22 11 19 9 19 10 10 4 7 1h9v9l-12 2-16-2-12-5-12-10-4-2-13-2-14-7-9-7-12-7-6-5z" fill="#4A4844"/>
<path transform="translate(389,1720)" d="m0 0 22 2 24 5 4 2 1 7v10l-4 4h-17l-16-2-16-5-4-2 2-14 2-6z" fill="#4B4945"/>
<path transform="translate(417,147)" d="m0 0h10l12 2 1 2v13l-3 5-18 4-20 3h-11l-3-6-2-13 3-3 13-4 9-2z" fill="#4B4945"/>
<path transform="translate(319,671)" d="m0 0 16 2 18 5 10 4 7 5-1 5-5 10-2 5-26-5-19-4 1-16-2-3v-6z" fill="#4B4945"/>
<path transform="translate(833,1449)" d="m0 0h14l10 4 9 8 6 10 3 8 1 4v8l-2 10-9 16-4 16-6 8-5 4-8 3h-14l-10-5-7 4-4 1h-9l-11-4-8-8-8-13-5-4-5-3v-8l7-6 8-7 7-6 4-2 3-13 6-7 9-4h10l9-10zm-1 4-8 4-8 9h-12l-8 5-4 6-1 12-7 2-7 6-3 5v15l3 10 8 10 8 6 6 2h10l6-3 5-4 5 4 9 3h8l8-3 6-7 3-7v-15l6-7 7-14v-13l-7-14-7-7-10-5z" fill="#373E3F"/>
<path transform="translate(738,1053)" d="m0 0 7 1 6 5 2 5h13l6 3 6 7 8 14 7 7 16 24 12 19 7 12 5 13 1 4v8l-4 8-8 7-10 3h-7l-8-3-8-9-8-17-7-15-7-16-5-17-3-13-8-9-3-8v-11l-13-2-5-3-2-2v-8l5-5zm18 13-5 6-1 2v11l3 8 8 9 4 4 6 31 5 13 8 16 8 15 5 5 7 4h13l8-4 5-7 1-3v-13l-5-12-8-14-10-15-10-14-10-12-6-8-7-16-6-5-2-1z" fill="#373E3F"/>
<path transform="translate(427,2027)" d="m0 0h8l8 3 3 4v14h-71l1-7 6-5 13-5 17-3z" fill="#373E3F"/>
<path transform="translate(834,348)" d="m0 0h8l10 4 7 8 4 8 4 17 8 16 1 3v9l-4 13-6 9-8 7-11 5-10 1-10-3-6-4-6-7-11-1-8-4-6-7-3-11-13-12-12-9-1-1v-7l5-5 5-3 7-11 7-8 9-5 4-1h10l8 3h4l8-3zm-37 4-10 5-8 9-4 8-1 4v16l4 6 7 6 7 2v11l4 6 5 4 6 2 9-1 6 8 6 4 5 2h13l9-4 8-6 7-11 3-11-1-10-6-11-6-8-2-16-4-8-7-6-4-1h-11l-9 4-4 2-5-4-5-2z" fill="#373E3F"/>
<path transform="translate(803,704)" d="m0 0h14l8 4 6 7 2 4v14l-6 15-15 25-9 14-12 16-8 8-5 12-4 5-7 4h-14l-3 7-5 4h-7l-8-3-2-3v-7l4-5 8-3h8v-11l3-8 8-10 7-26 13-31 8-16 6-10 7-5zm2 2-8 4-6 7-12 23-9 23-3 15-2 11-6 8-7 9-2 5v10l4 7 3 3h9l8-5 4-8 4-11 5-4 8-12 7-8 11-17 11-18 7-15v-14l-6-8-6-4-3-1z" fill="#373E3F"/>
<path transform="translate(927,1849)" d="m0 0h17l4 1v2h-22l-10 3-10 6-8 8-2 5 16-8 16-7 8-2 9 1v1l-13 1-29 14-21 11-22 10-3-1 17-9 19-9-5-2-13 8-25 12-1 1 6 2 31 15 4 3 7 2 11 11 12 6 4 1h24v2l-11 2h-8l-15-4-10-6-10-9-13-1-12-5-7-5v-2l-5-2-10-6-8-4 5-4 21-14 12-7 3-1 13-1 6-4 9-8 8-4z" fill="#373E3F"/>
<path transform="translate(297,1564)" d="m0 0 9 3 2 1-1-3 5 1 2 1v4l6 2 10 3 13 3v7 2l9 4 6 2-1 4-3 6-9-2-18-6-22-6-11-6-4-5 4-4 4-1-3-3 1-6z" fill="#4A4844"/>
<path transform="translate(63 2e3)" d="m0 0 4 2 8 11 14 22 8 11v1h-45l1-9 5-26 4-11z" fill="#4B4945"/>
<path transform="translate(136,434)" d="m0 0 4 3 6 18 7 11 4 6 6 18 5 23 3 17 1 25 5 11 2 10-3 6-1-2 1-2v-7l-4-10-4-6-1-28-3-12-3-3-5-18-5-20-4-9-4-4h-6l-6 4-3 4v8l10 34 8 26 7 21 1 5 1 16 3 5 4 4-5-1-4-4-1-3-1-17-4-15-16-47-7-24v-8l4-7-1-9-3-10 1-5 4-1 3 8 4 11 2 1-3-14-1-7z" fill="#373E3F"/>
<path transform="translate(264,972)" d="m0 0h14l9 4 8 7 5 9 2 5 1 9-2 13-5 9-6 7-5 8-5 10-9 6-13 2-13-4-7-6-14 1-8-4-6-7-4-9-2-9-6-7-1-2v-7l4-5 12-5 9-3 8-11 6-4zm0 3-7 6-3 3-7-4h-7l-6 3-7 8-1 2v7h-12l-4 5-3 8v14l4 12 6 7 6 3h7l9-2 8 7 10 3 10-1 6-4 6-7 4-11 11-10 5-10 1-4v-10l-4-11-7-8-7-5-3-1z" fill="#373E3F"/>
<path transform="translate(160,1308)" d="m0 0h8l6 4 4 6v10l-6 12-1 27-4 22-6 25-6 14-9 14-6 18-2 2h-3v-8l4-14-3 1-5 13-2 6-5-1 1-9 3-11-1-5-3-5v-8l6-23 12-35 7-19 2-9 1-18 4-6zm4 1-6 3-3 4-1 3-1 15-4 15-12 36-7 24-3 12v7l4 5 9 4 5-1 6-10 6-21 5-18 3-5 3-14 2-28 7-14-1-9-5-6z" fill="#373E3F"/>
<path transform="translate(256,836)" d="m0 0h11l8 3 5 4 12 22 7 9 3 7 1 11-2 10-6 11-8 7-8 4-4 1-13-1-9-4-6-1-9-1-7-4-11-13-16-5-7-6v-8l5-7h3l1-10 6-12 7-6 4-2 10 1 5 2 2-4 7-5zm-3 4-8 4-5 5-4 1-4-2-7-1-7 3-7 8-3 7-1 5v11l2 9 4 5 2 1h11l2 10 7 8 3 2 8 1 7-3 4 1 4 5 5 2h13l10-6 7-9 4-10v-11l-3-9-6-8-8-6-5-12-5-7-7-4z" fill="#373E3F"/>
<path transform="translate(270,70)" d="m0 0 2 2v8l-5 13-7 11-22 22-8 7-14 13-14 11-10 7h-3l1-4 7-8 19-19 1-2h2l1-3 8-7 7-7 5-4 1-2h2v-2h2l2-4 5-4 7-8 8-17z" fill="#4B4945"/>
<path transform="translate(316,732)" d="m0 0 16 1 16 3 5 2v11h-5l2 7 5 3 1 5-7 8-2 1h-7l-5-3-3-5 2-4h6l-6-2v-9l-18-2-2-1v-12z" fill="#4B4945"/>
<path transform="translate(429,3)" d="m0 0h29l12 3 2 2v11l-1 2h-2l-5-6-8-2 1 2 7 3v3l-1 1-17-1h-25l-10 2 1-5 1-10 3-3z" fill="#4B4945"/>
<path transform="translate(413,1873)" d="m0 0 5 2 11 1h11l23-1 1 4-7 2 6 1 5-5 4-1v13l-8 4h-45l-5-3-1-2-1-10v-4z" fill="#4B4945"/>
<path transform="translate(342,1123)" d="m0 0 7 1 1 5 2 5v6h-3l-1 6 4 1 1 2v9l-9 3-20 3h-9l-1-2v-13l15-2h5l-1-7 6-4 1-2-7 1v-6l6-5z" fill="#4B4945"/>
<path transform="translate(414,1894)" d="m0 0h3v2h49l6 3 1 5-1 7h-4l-1-4-3-1h-7l-1 1 8 2v3l-2 1-19-1h-20l-11 2-1-2 1-2 1-10 2-2-2-3z" fill="#4B4945"/>
<path transform="translate(188,1733)" d="m0 0 5 1 12 8 10 9 13 11 13 13 8 7 10 10 7 10 5 12 1 9-4-4-8-11-10-11-7-8-16-16-2-1v-2l-4-2-22-22-7-6z" fill="#4B4945"/>
<path transform="translate(636,864)" d="m0 0h13l12 3 10 4 10 9 6 8 6 12 3 11v11l-3 16-4 9 1 5 5 15 1 15-2 11-5 13-7 10-9 8-10 5-11 3h-22l-15-5-13-9-7-8-8-11-5-12-2-7-1-13 2-16-1-10-1-6v-11l3-15 8-16 7-9 7-7 14-9 11-3zm-2 2-10 2-14 7-10 9-8 9-8 15-3 14v14l2 9v7l-2 10v12l2 10 5 12 6 10 11 12 11 7 10 4 4 1h23l12-4 10-6 7-7 8-14 4-13v-16l-4-15-3-6 2-5 4-13 1-5v-16l-4-13-7-12-7-8-9-6-16-5z" fill="#373E3F"/>
<path transform="translate(851,1718)" d="m0 0h8l7 4 6 5 8 11 1 3v8l-4 6-5 1-11-9-20-20 2-4z" fill="#4B4945"/>
<path transform="translate(873,140)" d="m0 0 5 3 3 6-1 9-7 10-7 7-5 3-8 1-8-4-4-5 7-8 17-16 6-5z" fill="#4B4945"/>
<path transform="translate(486,1302)" d="m0 0h6l6 4 4 4v2l6-2h15l12 5 9 9 6 10 5 13v18l-4 11-6 10-7 7-6 2 6-7 7-9 7-15 1-10-2-11-7-14-4-5-10-7-10-3h-11l-9 2-5-9-4-2-6 1-9 9-4 6h-2l-7 14v21l3 6 8 9 11 9 9 8 8 3 6 1h15l1 2-9 2h-9l-13-3-12-7-8-8-10-14-3-7v-23l4-9 8-10 12-12z" fill="#373E3F"/>
<path transform="translate(603,706)" d="m0 0h23l17 3 15 4 2 7 4 1-2 6-12-1-10-2-17-3-20-2-1-5 2-1z" fill="#4A4844"/>
<path transform="translate(648,1170)" d="m0 0h14l2 3v3l-3 1-3 7-11 3-21 3-12 1h-11l-1-2 3-6h-2l1-5 1-1 22-2 16-3z" fill="#4A4844"/>
<path transform="translate(503,501)" d="m0 0h29l9 6 7 8 5 10 2 6 1 12-3 12-7 14-5 7h-2l-1 3-8 5-6 2h-18l-4-1-7 9-4 2-5-1-8-7-8-8-8-12-2-6v-21l4-11 12-14 9-8 10-5zm21 2-18 1-8 2-8 4-15 14-8 7-4 8-1 3v19l7 14 8 8 2 3h2l1 3h2v2l6 2 4-1 7-10v-2h2v2l7 2h10l10-3 6-4 7-7 9-17 1-4v-18l-8-16-8-9-4-3z" fill="#373E3F"/>
<path transform="translate(873,606)" d="m0 0h9l16 6 14 7 6 5-2 2h-3l-4 6-8-1-32-10-3-2 1-6 4-6z" fill="#4B4945"/>
<path transform="translate(901,1265)" d="m0 0h6l4 2 2 3v6l-5 4-10 5-16 5-8 1-5-4-3-7 1-4 24-8z" fill="#4B4945"/>
<path transform="translate(289,1340)" d="m0 0 7 1v4l-5 1v3l7-1 2-4 2-3 4 2 1 6-9 4-38 16-6 1v2l-2-1 1-5v-3h2l1-3 10-3 2-3-11 2h-6l1-5 19-5z" fill="#4B4945"/>
<path transform="translate(637,1833)" d="m0 0h21l16 5 10 5 12 9v2l4 2 8 9 6 10 5 13 1 8-4 11-6 12-9 12-11 10-14 8-15 5-5 1h-17l-12-3-12-6-8-7-6-8-4-8-3-13v-30l3-14 6-12 8-9 9-6 9-4zm-2 2-13 5-9 6-8 8-7 13-2 8v39l5 13 7 10 9 8 13 6 8 2h18l15-4 16-8 12-11 8-10 8-15 2-6v-10l-5-13-7-11-12-13-11-8-12-6-12-3z" fill="#373E3F"/>
<path transform="translate(727,2018)" d="m0 0 15 1 13 4 8 5v2h2l5 8 3 10h-7l-6-12-8-7-9-3h-30l-11 3-8 7-5 12h-6l3-10 6-9 7-6 7-3 5-1z" fill="#373E3F"/>
<path transform="translate(309,1354)" d="m0 0 2 2v7l-16 8-16 6-22 6-4-1-10-17 1-4 4 5 5 7 8-1 25-9z" fill="#4B4945"/>
<path transform="translate(49,1863)" d="m0 0h1v8l-4 13-1 2 10 2 13 3 9 4-4 2-26 4h-2l3 6 2 15h-2l-4-13-14-12-2-3 9-9 5-3h2l4-16z" fill="#373E3F"/>
<path transform="translate(254,527)" d="m0 0 6 1 11 5 23 9 3 3-6 5 6 3-1 3h-8l-27-9-9-2-1-4h15l-2-2-9-4-2-2z" fill="#4B4945"/>
<path transform="translate(663,1188)" d="m0 0h3v8l-16 5-19 3-14 1h-12l-5-2 1-7 34-3z" fill="#4B4945"/>
<path transform="translate(254,513)" d="m0 0 15 4 16 5 19 8 7 4v8l-5-1-27-11-20-6h-6l-7 9-1 2h-2l1-6 9-15z" fill="#4B4945"/>
<path transform="translate(418,965)" d="m0 0 57 6 5 2 1 3-4 4-2 1-19-1-28-4-9-3-2-3z" fill="#4B4945"/>
<path transform="translate(854,127)" d="m0 0 5 2 6 4-2 5-8 8-7 8-9 9-9-6-2-4 7-8 16-16z" fill="#4B4945"/>
<path transform="translate(519,1149)" d="m0 0 5 2-5 10-9 15-12 19-15 25-13 18-2 3-4-1 1-4 7-11 12-20 7-10 13-21 12-20z" fill="#4B4945"/>
<path transform="translate(601,693)" d="m0 0h33l20 4 11 4 1 1v6l-12-1-24-4-30-3v-6z" fill="#4B4945"/>
<path transform="translate(837,1734)" d="m0 0 4 1v2l3 1 7 8 15 15-4 4-6 4-4-1-7-6-7-8-10-10 2-4z" fill="#4B4945"/>
<path transform="translate(472,916)" d="m0 0 7 1 2 3v4l-2 1-51 5-11 1v-5l4-3 16-4 15-2z" fill="#4B4945"/>
<path transform="translate(328,708)" d="m0 0 10 1 17 4 1 5-2 13-22-3-8-2 3-17z" fill="#4B4945"/>
<path transform="translate(720,239)" d="m0 0h14l19 3 8 4-1 5h-9l-21-2h-34l-1-5 7-3z" fill="#4B4945"/>
<path transform="translate(346,278)" d="m0 0h3l2 5-1 4-28 11-27 11-5 3-4-1-2-4 42-21z" fill="#4B4945"/>
<path transform="translate(838)" d="m0 0h11l10 7 24 12 7 6 5-1 13 13 10 5 7 2h23v2l-12 2-16-2-12-5-12-10-4-2-13-2-14-7-9-7-12-7-6-5z" fill="#373E3F"/>
<path transform="translate(352,1165)" d="m0 0 2 1 2 17-25 6h-3l-3-12-1-7z" fill="#4B4945"/>
<path transform="translate(947,122)" d="m0 0h1v89l-2-2-4-24-2-23v-31l5-8z" fill="#373E3F"/>
<path transform="translate(286,1584)" d="m0 0 5 2 10 5 20 7 25 10 6 3-3 8-13-4-35-17-17-8 1-4z" fill="#4B4945"/>
<path transform="translate(947,1686)" d="m0 0h1v89l-5-3-3-7v-30l4-36z" fill="#373E3F"/>
<path transform="translate(853,2019)" d="m0 0 5 1 8 5v2l-8 7-7 8-5 6h-18l1-5 12-12 7-8z" fill="#4B4945"/>
<path transform="translate(465,656)" d="m0 0 4 1 8 11 10 15 12 20 14 23 9 14 2 3-1 5-2 2-7-12-15-25-8-12-10-17-16-24z" fill="#4B4945"/>
<path transform="translate(755,1645)" d="m0 0 5 1 1 5-8 3-18 3h-21l-14-2-5-3v-3l2-1h35z" fill="#4B4945"/>
<path transform="translate(895,1350)" d="m0 0h2l-1 5-5 4-16 10h-2l1 9 14-7 10-2 7 3 9 12 9 17 10 16 6 11 9 16v7l-2-3-12-23-8-14-10-17-9-15-4-5-2-1h-8l-12 5-6 5v8l7 14 12 21 6 11-1 3-9-17-9-15-7-12-2-7-1-9v-11l9-7 11-7 3-1z" fill="#373E3F"/>
<path transform="translate(940,402)" d="m0 0 8 4v32l-8-6-14-7 5-9 8-13z" fill="#4B4945"/>
<path transform="translate(196,1462)" d="m0 0 5 1 4 4 1 3v7l-5 10-6 4-4-2-5-5v-9l4-8z" fill="#4B4945"/>
<path transform="translate(193,406)" d="m0 0 5 1 6 7 2 5v7l-4 7-7 1-5-5-4-7v-8l4-6z" fill="#4B4945"/>
<path transform="translate(538,1126)" d="m0 0 5 2 3 5-1 6-4 7-8 5-6-1-4-3-1-6 4-8 7-6z" fill="#4B4945"/>
<path transform="translate(528,746)" d="m0 0h6l6 4 5 6 1 8-3 5-2 1h-7l-8-7-3-5v-7z" fill="#4B4945"/>
<path transform="translate(28)" d="m0 0h47l-1 3-8 4-22 3 3 5v6l-4-5-6-4-8-9z" fill="#373E3F"/>
<path transform="translate(8,1575)" d="m0 0h7l16 10 14 7 4 5 3 7 3 17 1 4h-2l-3-10-5 11 4 1 8 6-2 1-13-7 2-5 4-11-1-8-4-6-7-4-13-2-5-5-4-6-3-1-12 5v-6z" fill="#373E3F"/>
<path transform="translate(262,1970)" d="m0 0 1 2-3 7-7 10-6 7-9 7-18 18-8 7-7 8-12 12h-7l3-4h2v-2l8-7 12-12 8-7 8-8 8-7 16-16z" fill="#373E3F"/>
<path transform="translate(767,1065)" d="m0 0 5 2 6 7 8 14 7 7 16 24 12 19 7 12 5 13 1 4v8l-4 8-8 7-5 1 3-3 5-3 4-6 1-3v-13l-5-12-8-14-10-15-10-14-10-12-6-8-7-16-5-4-2-1z" fill="#373E3F"/>
<path transform="translate(516,93)" d="m0 0 2 1-10 9-4 9v11l3 6v2h2l5 5 3 1 13 1 8 7 6 3 8 11 6 3h15l9-3-3 3-9 3h-11l-9-4-17-11-8-6-9-4-6-4-7-8-2-5v-10l4-10 6-7z" fill="#373E3F"/>
<path transform="translate(835,114)" d="m0 0 7 4 5 5-1 4-13 13-5 1-6-6v-5l8-10z" fill="#4B4945"/>
<path transform="translate(829,1756)" d="m0 0 4 1 10 9 5 6-4 5-5 4h-5l-9-10-3-5 1-5z" fill="#4B4945"/>
<path transform="translate(558,1732)" d="m0 0h15l8 3 8 7-1 2-7-6-10-4h-9l-9 3-5 5-4 7-8 3-4 4-2 3h-13l-8 6-4 6-1 3v11l5 10 9 7-2 1-6-4-6-7-3-8v-10l5-10 7-6 14-7 23-16z" fill="#373E3F"/>
<path transform="translate(122,406)" d="m0 0 7 1 3 3 5 10 2 7-1 5-5 2-3-7-1-10 1-4-1-1h-6l1 5 5 15-1 4-6-2-2-3-3-9-1-2v-9z" fill="#373E3F"/>
<path transform="translate(835,2006)" d="m0 0 4 1 6 5v8l-13 12-4-1-6-5 1-6 11-13z" fill="#4B4945"/>
<path transform="translate(595)" d="m0 0 2 1v20l4 13 7 11 8 7 15 7 10 2h14l16-4 16-8 12-11 9-12 6-12 4-14h2l-1 8-5 13-7 11-9 10-7 7-14 8-9 4-16 3h-11l-13-3-14-7-9-8-6-10-4-11-1-6v-10z" fill="#373E3F"/>
<path transform="translate(947,446)" d="m0 0h1v7l-14 24-15 26-10 16-6 7-7 2-12-4-10-7-2-3v-8l8-16 13-22 10-19 1 2-11 22-12 21-7 14v5l8 6 11 5h7l6-5 15-25 15-26 10-19z" fill="#373E3F"/>
<path transform="translate(410,2039)" d="m0 0h9l1 2h19l1 7h-54v-2l10-4z" fill="#4B4945"/>
<path transform="translate(125,1461)" d="m0 0 4 1-3 12-3 8v3h6l3-5h-3v-7l3-9 7 1-1 8-6 13-3 3h-8l-5-4 1-10 5-13z" fill="#373E3F"/>
<path transform="translate(424,500)" d="m0 0 10 1 8 7 2 6v5l-2-1-2-7-4-2-5-3h-13l-5 3-6 7-3-2h-12l-6 3-5 6h-3l1-4 5-7 8-4 9-1 8 1 7-6z" fill="#373E3F"/>
<path transform="translate(429,1926)" d="m0 0 15 1 8 3 3 3 1 5-5 6-3 3-3 11-3-1-2-3v-7l5-5-1-4-6-5-12-3-1-3z" fill="#4B4945"/>
<path transform="translate(56,1955)" d="m0 0 7 1 4 5 1 8-4 5-8 2-6-3-2-3v-7l4-6z" fill="#4B4945"/>
<path transform="translate(56,1812)" d="m0 0 7 1 4 4 1 5-2 7-4 3-6 1-5-3-3-5v-7l5-5z" fill="#4B4945"/>
<path transform="translate(519,1983)" d="m0 0 4 1-10 5-6 7-3 7v12l5 8 5 4 5 2 12 1 7 6 6 3 5 7v2h-6l-18-12v-2l-10-3-8-6-5-8-1-3v-10l4-10 8-8z" fill="#373E3F"/>
<path transform="translate(426,35)" d="m0 0h10l12 2 6 4 2 3-1 5-7 7-3 10-3-1-3-6 2-5 4-4-1-4-8-5-9-2z" fill="#4B4945"/>
<path transform="translate(55,64)" d="m0 0h6l4 2 3 7-1 7-5 4h-8l-5-4-1-7 3-6z" fill="#4B4945"/>
<path transform="translate(443,1830)" d="m0 0 2 1 3 10 1 3 4 2 3 4-2 5-4 4-8 2-16 1 2-4 8-3 7-4 2-5-5-6-1-5z" fill="#4B4945"/>
<path transform="translate(830,736)" d="m0 0 1 3-8 16-16 26-12 17-9 10-4 5-4 10-4 5-5 3-2-1 6-4 4-8 5-12 5-5 8-11 6-7 11-17 11-18 6-11z" fill="#373E3F"/>
<path transform="translate(58,261)" d="m0 0v3l-11 7 2 6 3 6v7l-4 10-8 7-17 8-9 6-9-1-5-2v-5l8 4h6l4-4 6-8 14-1 5-3 4-5 2-5v-8l-6-11v-2z" fill="#373E3F"/>
<path transform="translate(380,1373)" d="m0 0 4 5 7 4 5 1h7l5-2 6 8 7 3 10-1 8-5 4-10h1v7l-5 8-5 4-3 1h-11l-6-3-5-5-12 1-9-2-8-7-2-3v-3z" fill="#373E3F"/>
<path transform="translate(217,762)" d="m0 0h6l6 4 2 5-3 5-5 3h-10l-4-4 1-7z" fill="#4B4945"/>
<path transform="translate(621,743)" d="m0 0h15l5 5 1 5-12 11-3 2 1 9-4 1-5-4 2-5 9-10-1-6-5-5z" fill="#4B4945"/>
<path transform="translate(871,2032)" d="m0 0h5l5 6v10h-26l6-7 8-8z" fill="#4B4945"/>
<path transform="translate(718,1729)" d="m0 0 6 2 3 5-1 7-6 3h-8l-6-5-1-4 7-6z" fill="#373E3F"/>
<path transform="translate(624,1122)" d="m0 0 4 1-1 7 13 12 1 1v6l-4 4-2 1h-15l10-10v-5l-9-10 1-6z" fill="#4B4945"/>
<path transform="translate(214,1118)" d="m0 0h10l6 5v6l-4 4-2 1h-8l-5-5-2-3 1-5z" fill="#4B4945"/>
<path transform="translate(716,150)" d="m0 0 8 2 3 6-1 4-5 5-8-1-6-4-1-6 6-5z" fill="#373E3F"/>
<path transform="translate(736,825)" d="m0 0 8 1 5 4 1 5-4 6h-10l-5-3-2-3 1-5z" fill="#4B4945"/>
<path transform="translate(428,25)" d="m0 0 28 1 4 2 2 5-2 4-7-1-8-3-20-2-1-4z" fill="#4B4945"/>
<path transform="translate(738,1055)" d="m0 0 7 1 5 5-1 5-5 4-2 1h-7l-5-4v-7l5-4z" fill="#4B4945"/>
<path transform="translate(947,2014)" d="m0 0h1v34h-8v-25l4-7z" fill="#373E3F"/>
<path transform="translate(455,1859)" d="m0 0 5 1 1 1-1 7-2 2-10 1h-23l-1-2 2-3 18-2 10-4z" fill="#4B4945"/>
<path transform="translate(425,1917)" d="m0 0h26l7 1 3 3v6l-3 2-4-1-9-4-20-3z" fill="#4B4945"/>
<path transform="translate(310,1556)" d="m0 0h6l15 8 2 5v4l-9-2-16-8-5-4z" fill="#4B4945"/>
<path transform="translate(704,276)" d="m0 0 9 1 13 5 6 4 6 8v5l-2 2-4-1-8-12-8-4-10-4z" fill="#4B4945"/>
<path transform="translate(277,1326)" d="m0 0 6 1 2 2v5l-18 8-11 3h-5l1-4 16-7z" fill="#4B4945"/>
<path transform="translate(733,1595)" d="m0 0 4 1 1 1v6l-6 8-10 5-17 5-1-2 19-10 7-10z" fill="#4B4945"/>
<path transform="translate(250,552)" d="m0 0 11 1 12 4 12 5-1 7-6 2-8-7-15-8-5-3z" fill="#4B4945"/>
<path transform="translate(645,1161)" d="m0 0h5l1 3-4 1v3l-19 3h-18l-2-1v-2l7-2 21-3z" fill="#4B4945"/>
<path transform="translate(123,411)" d="m0 0h6l2 2-1 10 3 10h3l-1 6 3 11v7l-3-1-6-18-2-2 1-4-5-15-1-5z" fill="#4B4945"/>
<path transform="translate(33,984)" d="m0 0h6l4 5 1 5-3 3-9 3-5-1-2-2 1-6 5-6z" fill="#4B4945"/>
<path transform="translate(700,1010)" d="m0 0 8 4 3 4-1 6-5 4-6-1-5-6 1-7 3-3z" fill="#4B4945"/>
<path transform="translate(26,897)" d="m0 0h10l5 2 2 3-1 7-5 4-5-1-5-4-1-2z" fill="#4B4945"/>
<path transform="translate(610,726)" d="m0 0h20l17 2v4l5 1v2h-9l-14-3-20-2-1-3z" fill="#4B4945"/>
<path transform="translate(879,1613)" d="m0 0h7l7 4 2 2 6-1h10l9 4 4 3-1 2-7-5-7-2-9 1-6 2-5-5-5-2-6 1-5 3-2 6-2 13-4 8-4 4-2-1 5-6 3-8 2-16 5-5z" fill="#373E3F"/>
<path transform="translate(649,625)" d="m0 0 9 1 9 4 4 4-1 5-3 3-3 1h-7l-5-2 3-3 6-1 1-5h-2v-2l-9-3z" fill="#373E3F"/>
<path transform="translate(655,1254)" d="m0 0h8l6 3 2 4-1 4-6 4-10 3h-6l4-3 9-5 1-4-6-3z" fill="#373E3F"/>
<path transform="translate(858,2)" d="m0 0 6 1 39 19 19 10 10 4-1 2-9-3-32-16-25-12-7-4z" fill="#373E3F"/>
<path transform="translate(32,964)" d="m0 0 7 1 3 3v6l-3 3h-8l-3-3v-7z" fill="#373E3F"/>
<path transform="translate(32,919)" d="m0 0 7 1 3 2v6l-4 4-5 1-5-4v-6z" fill="#373E3F"/>
<path transform="translate(621,626)" d="m0 0h7l3 3 1 7-3 3-7-1-4-4v-7z" fill="#4B4945"/>
<path transform="translate(859,244)" d="m0 0 6 5 4 8 1 4 1 13 4 5 2 1h9l6-4 4-2 6 2h13l-2 2h-14l-4-1-6 5-2 1h-10l-6-4-2-3-3-20-6-9z" fill="#373E3F"/>
<path transform="translate(626,1240)" d="m0 0h6l5 5-2 5-3 3-7-1-2-2v-7z" fill="#373E3F"/>
<path transform="translate(905,1449)" d="m0 0 4 4 9 11 5 5 9-2 11-7 5-4-1 4-8 6-10 5h-3l10 16-1 3-7-11-9-10-11-13-3-4z" fill="#373E3F"/>
<path transform="translate(409,1298)" d="m0 0 5 1 2 1v8l-5 5-5-1-2-3v-6z" fill="#4B4945"/>
<path transform="translate(623,1258)" d="m0 0h7l2 6-2 5-2 1h-10v-7z" fill="#4B4945"/>
<path transform="translate(627,644)" d="m0 0h6l4 5-2 5-4 3-5-1-3-3v-6z" fill="#373E3F"/>
<path transform="translate(865,1897)" d="m0 0 10 3 18 8 20 11 13 6-4 1-15-7-21-11-20-9z" fill="#373E3F"/>
<path transform="translate(408,584)" d="m0 0 6 3 2 3v6l-3 2h-5l-4-5v-6z" fill="#4B4945"/>
<path transform="translate(27,169)" d="m0 0 5 5 4 5v3h-13l-2-5 4-6z" fill="#4B4945"/>
<path transform="translate(946,2020)" d="m0 0h2v28l-3-1-2-4v-16l1-5h2z" fill="#4B4945"/>
<path transform="translate(28,1714)" d="m0 0 8 1-2 5-5 7-4-2-3-2v-7z" fill="#4B4945"/>
<path transform="translate(316,1550)" d="m0 0 7 1 22 11 1 2-9-1-20-9-2-3z" fill="#4B4945"/>
<path transform="translate(947,1730)" d="m0 0h1v38l-3-1-1-2v-18z" fill="#4B4945"/>
<path transform="translate(633,1156)" d="m0 0h11v2l-6 2-18 2-7-2 1-3z" fill="#4B4945"/>
<path transform="translate(614,735)" d="m0 0h14l16 3-1 3-30-2-1-3z" fill="#4B4945"/>
<path transform="translate(934,409)" d="m0 0 1 2-8 13 13 7 8 7-1 3-7-7-12-6-4-1-11 11v-3l13-14z" fill="#373E3F"/>
<path transform="translate(796,82)" d="m0 0 7 6 14 19 5 7-1 4-8-10-12-17-5-6z" fill="#4B4945"/>
<path transform="translate(619,572)" d="m0 0h5l-6 7-10 15h-1l1-9 4-8 5-4z" fill="#4B4945"/>
<path transform="translate(606,1301)" d="m0 0 4 5 9 12 8 7-3 1-7-3-7-8-4-11z" fill="#4B4945"/>
<path transform="translate(947,128)" d="m0 0h1v35l-2-2-3-19 2-11z" fill="#4B4945"/>
<path transform="translate(796,1973)" d="m0 0 6 5 14 19 6 9-1 3-8-10-8-11-9-12z" fill="#4B4945"/>
<path transform="translate(26,848)" d="m0 0v3l-8 8-8 14-4 12h-1l1-9 7-16 7-9z" fill="#4B4945"/>
<path transform="translate(343,342)" d="m0 0h3l-2 5-6 4-8 2-4-2 5-5z" fill="#4B4945"/>
<path transform="translate(697,1008)" d="m0 0h3l10 5 3 5v5l-5 5-2 1-9-1-4-6v-8l3-5zm3 2-4 2-2 4 1 7 6 5 6-1 4-5-1-6-5-4z" fill="#373E3F"/>
<path transform="translate(711,2042)" d="m0 0h10l5 2v4h-19l2-4z" fill="#373E3F"/>
<path transform="translate(821,1779)" d="m0 0 1 2-8 12-14 19-4 2 1-4 7-8 11-16z" fill="#4B4945"/>
<path transform="translate(5,1012)" d="m0 0 2 3 6 15 7 10 8 7 3 3-6-1-9-8-8-16-3-9z" fill="#4B4945"/>
<path transform="translate(916,1283)" d="m0 0 3 1-8 5-17 6-11 3h-12v-2l21-3 15-5z" fill="#4B4945"/>
<path transform="translate(703,867)" d="m0 0 6 2 4 5-1 7-6 5-7 2 1-2 6-3 4-5-1-6-3-2-6 1-5 5v7l1 2-3-1-1-5 3-8z" fill="#373E3F"/>
<path transform="translate(330,1544)" d="m0 0 7 1 8 6 1 4-12-4-6-4v-2z" fill="#4B4945"/>
<path transform="translate(768,1505)" d="m0 0 4 1v9l-7 1-2-3 1-5z" fill="#4B4945"/>
<path transform="translate(872,516)" d="m0 0 1 4 1 7 23 15v4h-2l-4-5-16-10-4-4v-10z" fill="#373E3F"/>
<path transform="translate(766,381)" d="m0 0 6 1v10l-4-1-4-2-1-6z" fill="#4B4945"/>
<path transform="translate(504,422)" d="m0 0 10 3 9 3 15 8 1 2-6-1-10-6-19-7z" fill="#373E3F"/>
<path transform="translate(299,545)" d="m0 0 7 2 1 3-2 6-4-1-3-6z" fill="#4B4945"/>
<path transform="translate(311,1575)" d="m0 0 5 1 18 9v2l-10-3-11-6z" fill="#373E3F"/>
<path transform="translate(332,310)" d="m0 0 3 1-15 8-9 3v-2l15-8z" fill="#373E3F"/>
<path transform="translate(929,1638)" d="m0 0h1l1 5 11 7 6 5-1 3-7-6-9-6-2 3-1-5z" fill="#373E3F"/>
<path transform="translate(609,105)" d="m0 0h2l1 7-2 9-3 3 1-7-1-3v-7z" fill="#3D4140"/>
<path transform="translate(609 2e3)" d="m0 0h2v11l-2 7h-1l-1-7v-9z" fill="#373E3F"/>
<path transform="translate(849,1097)" d="m0 0h3l3 5-1 4-5 1-1-2v-7z" fill="#4B4945"/>
<path transform="translate(266,564)" d="m0 0 5 2 4 5v5l-4-1-5-9z" fill="#4B4945"/>
<path transform="translate(947,239)" d="m0 0v3l-13 10-4 1v5h-1l-2-8 3-2v3l16-11z" fill="#373E3F"/>
<path transform="translate(936,1490)" d="m0 0 3 3 8 16v2h-2l-1 4-1-7-7-15z" fill="#373E3F"/>
<path transform="translate(850,790)" d="m0 0 5 1-1 5-3 5-3-3v-6z" fill="#4B4945"/>
<path transform="translate(57,43)" d="m0 0 2 1v16h-3v-16z" fill="#4B4945"/>
<path transform="translate(56,1935)" d="m0 0h3v16h-3z" fill="#4B4945"/>
<path transform="translate(56,1836)" d="m0 0h3v16h-3z" fill="#4B4945"/>
<path transform="translate(355,1147)" d="m0 0 6 1-1 6-5 3-1-7z" fill="#4B4945"/>
<path transform="translate(831,800)" d="m0 0 3 1v5l-2 2h-4l-2-6z" fill="#4B4945"/>
<path transform="translate(272,1321)" d="m0 0h3l-1 5-5 6-3 1 2-6z" fill="#4B4945"/>
<path transform="translate(829,1089)" d="m0 0 5 1 1 4-2 2-5-1-1-4z" fill="#4B4945"/>
<path transform="translate(601,128)" d="m0 0h2l-2 6-6 11-2 1 3-9 3-8z" fill="#373E3F"/>
<path transform="translate(201,882)" d="m0 0 4 2 1 8-5-2-1-1v-6z" fill="#4B4945"/>
<path transform="translate(608,1774)" d="m0 0 2 2 1 5v9h-3z" fill="#373E3F"/>
<path transform="translate(201,1007)" d="m0 0 4 2v8l-1-2-5-2 1-5z" fill="#4B4945"/>
<path transform="translate(601,2019)" d="m0 0 1 3-9 17-1-2 5-11 3-6z" fill="#373E3F"/>
<path transform="translate(374,695)" d="m0 0h2l-1 9-2 6h-2l1-8z" fill="#4B4945"/>
<path transform="translate(486,1637)" d="m0 0h4l-1 7-2 1-3-2z" fill="#4B4945"/>
<path transform="translate(355,740)" d="m0 0 4 2 1 2v7l-5-5z" fill="#4B4945"/>
<path transform="translate(288,1624)" d="m0 0h5l-4 5-3 2h-3l2-5z" fill="#373E3F"/>
<path transform="translate(486,252)" d="m0 0 4 2v5l-4-1-1-5z" fill="#4B4945"/>
<path transform="translate(598,706)" d="m0 0 1 2-1 10h-2l-1-7z" fill="#4B4945"/>
<path transform="translate(607,112)" d="m0 0 4 1-1 8-3 3 1-7z" fill="#373E3F"/>
</svg>
