<svg width="106" height="106" viewBox="0 0 106 106" fill="none" xmlns="http://www.w3.org/2000/svg">
<path opacity="0.5" d="M53 106C82.2708 106 106 82.2708 106 53C106 23.7289 82.2708 0 53 0C23.7289 0 0 23.7289 0 53C0 82.2708 23.7289 106 53 106Z" fill="white"/>
<path d="M49.8947 80.8584C49.8798 80.8636 49.873 80.8651 49.873 80.8651L49.8947 80.8584Z" fill="white"/>
<path d="M51.9238 81.8682C51.9295 81.8816 51.9316 81.8899 51.9316 81.8899L51.9238 81.8682Z" fill="white"/>
<path d="M51.9238 24.1283C51.9295 24.1146 51.9316 24.1064 51.9316 24.1064L51.9285 24.115L51.9238 24.1283Z" fill="white"/>
<path fill-rule="evenodd" clip-rule="evenodd" d="M54.1136 18.3587C55.5823 19.1592 57.2947 20.4478 59.1227 21.8231L67.2338 27.9247C68.4867 28.8665 69.7497 29.8161 70.664 30.7383C71.6937 31.7768 72.8762 33.3592 72.8762 35.6027C72.8762 37.8462 71.6937 39.4287 70.664 40.4672C69.7497 41.3893 68.4867 42.339 67.2338 43.2807L54.314 52.9993L67.2338 62.7184C68.4867 63.6602 69.7497 64.61 70.664 65.5317C71.6937 66.5705 72.8762 68.153 72.8762 70.3965C72.8762 72.64 71.6937 74.2221 70.664 75.2609C69.7497 76.1831 68.4867 77.1328 67.2338 78.0746L59.1227 84.176C57.2947 85.5514 55.5823 86.8398 54.1136 87.6401C52.6127 88.4584 50.1386 89.4553 47.5173 88.1409C44.9012 86.8287 44.2154 84.2544 43.9679 82.5643C43.7256 80.9075 43.7256 78.7615 43.7262 76.4687V61.4862L34.346 69.3031C32.6595 70.7087 30.153 70.4808 28.7476 68.7943C27.3422 67.1079 27.57 64.6015 29.2565 63.196L41.4921 52.9993L29.2565 42.8031C27.57 41.3978 27.3422 38.8913 28.7476 37.2048C30.153 35.5183 32.6595 35.2904 34.346 36.6959L43.7262 44.5129V29.5302C43.7256 27.2374 43.7256 25.0918 43.9679 23.435C44.2154 21.7445 44.9012 19.1702 47.5173 17.8583C50.1386 16.5438 52.6127 17.5406 54.1136 18.3587ZM51.6762 76.1953V60.9636L62.2719 68.9337C62.9911 69.4749 63.563 69.9052 64.0427 70.2868L64.1794 70.3965L64.0427 70.5057C63.563 70.8873 62.9911 71.3177 62.2719 71.8588L54.5626 77.6575C53.3595 78.5628 52.4415 79.2491 51.7096 79.7627C51.6799 78.8643 51.6762 77.7111 51.6762 76.1953ZM49.8964 80.8582C49.8811 80.8635 49.8742 80.8651 49.8742 80.8651L49.8964 80.8582ZM51.9247 81.8684C51.9306 81.8822 51.9327 81.8906 51.9327 81.8906L51.9247 81.8684ZM51.6762 29.8038V45.0355L62.2719 37.0653C62.9911 36.5242 63.563 36.0937 64.0427 35.7123L64.1794 35.6027L64.0427 35.4932C63.563 35.1118 62.9911 34.6813 62.2719 34.1402L54.5626 28.3413C53.3595 27.4364 52.4415 26.7499 51.7096 26.2364C51.6799 27.1348 51.6762 28.288 51.6762 29.8038ZM51.9247 24.1309C51.9306 24.1167 51.9327 24.1084 51.9327 24.1084L51.9295 24.1171L51.9247 24.1309Z" fill="#3CD556"/>
</svg>
