<svg width="68" height="68" viewBox="0 0 68 68" fill="none" xmlns="http://www.w3.org/2000/svg">
<rect x="5" y="5" width="58" height="58" rx="29" fill="#F8F6C9"/>
<rect x="5" y="5" width="58" height="58" rx="29" stroke="#EAD95A" stroke-width="10"/>
<path d="M25.0938 41.9844C25.0938 42.2862 24.8487 42.5312 24.5469 42.5312C24.245 42.5312 24 42.2862 24 41.9844C24 41.6825 24.245 41.4375 24.5469 41.4375C24.8487 41.4375 25.0938 41.6825 25.0938 41.9844Z" fill="black"/>
<path d="M24 20C25.2061 20 26.1875 20.9814 26.1875 22.1875V22.4819C26.5094 22.295 26.8831 22.1875 27.2812 22.1875C28.4874 22.1875 29.4688 23.1689 29.4688 24.375V25.7631C29.7907 25.5762 30.1643 25.4688 30.5625 25.4688C31.7686 25.4688 32.75 26.4501 32.75 27.6562V39.25C32.75 44.0749 28.8247 48 24 48C19.1753 48 15.25 44.0749 15.25 39.25V31.8125C15.25 30.9347 15.912 30.2157 16.7573 30.1753C17.4052 30.1439 18.0237 30.3362 18.5312 30.7192V25.4688C18.5312 24.2603 19.5101 23.2812 20.7188 23.2812C21.1169 23.2812 21.4906 23.3887 21.8125 23.5756V22.1875C21.8125 20.979 22.7913 20 24 20ZM20.7188 24.375C20.1146 24.375 19.625 24.8646 19.625 25.4688V37.0625C21.5241 37.0625 23.2592 38.0251 24.2664 39.6373C24.4264 39.8934 24.3484 40.2307 24.0923 40.3907C23.8372 40.5501 23.4995 40.4741 23.3388 40.2169C22.5326 38.9266 21.1443 38.1562 19.625 38.1562C19.4641 38.1562 19.3001 38.1652 19.1377 38.183C18.8143 38.2188 18.5312 37.9648 18.5312 37.6395C18.5312 37.0379 18.5312 33.3521 18.5312 32.9062C18.5312 31.977 17.759 31.2231 16.8094 31.2678C16.5569 31.2797 16.3438 31.5292 16.3438 31.8125V39.25C16.3438 43.4716 19.7784 46.9062 24 46.9062C28.2216 46.9062 31.6562 43.4716 31.6562 39.25V27.6562C31.6562 27.0532 31.1656 26.5625 30.5625 26.5625C29.9594 26.5625 29.4688 27.0532 29.4688 27.6562V34C29.4688 34.3021 29.2239 34.5469 28.9219 34.5469C28.6198 34.5469 28.375 34.3021 28.375 34V24.375C28.375 23.7719 27.8843 23.2812 27.2812 23.2812C26.6782 23.2812 26.1875 23.7719 26.1875 24.375V34C26.1875 34.3021 25.9427 34.5469 25.6406 34.5469C25.3386 34.5469 25.0938 34.3021 25.0938 34V22.1875C25.0938 21.5844 24.6031 21.0938 24 21.0938C23.3959 21.0938 22.9062 21.5834 22.9062 22.1875V34C22.9062 34.3021 22.6614 34.5469 22.3594 34.5469C22.0573 34.5469 21.8125 34.3021 21.8125 34V25.4688C21.8125 24.8657 21.3218 24.375 20.7188 24.375Z" fill="black"/>
<path d="M43.9062 41.9844C43.9062 42.2862 44.1513 42.5312 44.4531 42.5312C44.755 42.5312 45 42.2862 45 41.9844C45 41.6825 44.755 41.4375 44.4531 41.4375C44.1513 41.4375 43.9062 41.6825 43.9062 41.9844Z" fill="black"/>
<path d="M45 20C43.7939 20 42.8125 20.9814 42.8125 22.1875V22.4819C42.4906 22.295 42.1169 22.1875 41.7188 22.1875C40.5126 22.1875 39.5312 23.1689 39.5312 24.375V25.7631C39.2093 25.5762 38.8357 25.4688 38.4375 25.4688C37.2314 25.4688 36.25 26.4501 36.25 27.6562V39.25C36.25 44.0749 40.1753 48 45 48C49.8247 48 53.75 44.0749 53.75 39.25V31.8125C53.75 30.9347 53.088 30.2157 52.2427 30.1753C51.5948 30.1439 50.9763 30.3362 50.4688 30.7192V25.4688C50.4688 24.2603 49.4899 23.2812 48.2812 23.2812C47.8831 23.2812 47.5094 23.3887 47.1875 23.5756V22.1875C47.1875 20.979 46.2087 20 45 20ZM48.2812 24.375C48.8854 24.375 49.375 24.8646 49.375 25.4688V37.0625C47.4759 37.0625 45.7408 38.0251 44.7336 39.6373C44.5736 39.8934 44.6516 40.2307 44.9077 40.3907C45.1628 40.5501 45.5005 40.4741 45.6612 40.2169C46.4674 38.9266 47.8557 38.1562 49.375 38.1562C49.5359 38.1562 49.6999 38.1652 49.8623 38.183C50.1857 38.2188 50.4688 37.9648 50.4688 37.6395C50.4688 37.0379 50.4688 33.3521 50.4688 32.9062C50.4688 31.977 51.241 31.2231 52.1906 31.2678C52.4431 31.2797 52.6562 31.5292 52.6562 31.8125V39.25C52.6562 43.4716 49.2216 46.9062 45 46.9062C40.7784 46.9062 37.3438 43.4716 37.3438 39.25V27.6562C37.3438 27.0532 37.8344 26.5625 38.4375 26.5625C39.0406 26.5625 39.5312 27.0532 39.5312 27.6562V34C39.5312 34.3021 39.7761 34.5469 40.0781 34.5469C40.3802 34.5469 40.625 34.3021 40.625 34V24.375C40.625 23.7719 41.1157 23.2812 41.7188 23.2812C42.3218 23.2812 42.8125 23.7719 42.8125 24.375V34C42.8125 34.3021 43.0573 34.5469 43.3594 34.5469C43.6614 34.5469 43.9062 34.3021 43.9062 34V22.1875C43.9062 21.5844 44.3969 21.0938 45 21.0938C45.6041 21.0938 46.0938 21.5834 46.0938 22.1875V34C46.0938 34.3021 46.3386 34.5469 46.6406 34.5469C46.9427 34.5469 47.1875 34.3021 47.1875 34V25.4688C47.1875 24.8657 47.6782 24.375 48.2812 24.375Z" fill="black"/>
</svg>
