<svg width="26" height="27" viewBox="0 0 26 27" fill="none" xmlns="http://www.w3.org/2000/svg">
<g id="Group 1528">
<path id="Vector" d="M14.252 1C14.252 1 17.208 1.26872 20.97 5.03082C24.732 8.79293 25.0008 11.7489 25.0008 11.7489" stroke="#685F84" stroke-width="2" stroke-linecap="round"/>
<g id="Vector_2">
<path d="M15.1465 5.47852C15.1465 5.47852 16.4006 5.83682 18.2816 7.71787C20.1626 9.59892 20.521 10.853 20.521 10.853" fill="#685F84"/>
<path d="M15.1465 5.47852C15.1465 5.47852 16.4006 5.83682 18.2816 7.71787C20.1626 9.59892 20.521 10.853 20.521 10.853" stroke="#685F84" stroke-width="2" stroke-linecap="round"/>
</g>
<path id="Vector_3" d="M16.9677 18.1564L17.5447 17.549L16.167 16.2404L15.59 16.8478L16.9677 18.1564ZM19.4432 17.2932L21.8634 18.6863L22.8113 17.0395L20.3912 15.6464L19.4432 17.2932ZM22.3305 21.5744L20.5309 23.4689L21.9086 24.7775L23.7082 22.8829L22.3305 21.5744ZM19.4482 24.076C17.6304 24.2555 12.8872 24.1023 7.73891 18.6821L6.3612 19.9907C11.9721 25.898 17.3245 26.195 19.6348 25.967L19.4482 24.076ZM7.73891 18.6821C2.82877 13.5125 2.00514 9.15204 1.90249 7.23945L0.00507348 7.34128C0.1308 9.68382 1.12544 14.4785 6.3612 19.9907L7.73891 18.6821ZM9.48115 10.2744L9.84446 9.89192L8.46675 8.58331L8.10343 8.96582L9.48115 10.2744ZM10.1299 5.1295L8.53253 2.87023L6.98101 3.96721L8.57839 6.22647L10.1299 5.1295ZM3.12599 2.38316L1.13768 4.47648L2.51539 5.78509L4.5037 3.69177L3.12599 2.38316ZM8.79228 9.62012C8.10343 8.96582 8.10256 8.96675 8.10167 8.96767C8.10137 8.968 8.10048 8.96894 8.09988 8.96957C8.09868 8.97086 8.09745 8.97217 8.09621 8.97351C8.09371 8.9762 8.09113 8.979 8.08847 8.98192C8.08316 8.98776 8.07753 8.99408 8.0716 9.0009C8.05975 9.01453 8.04673 9.03011 8.03281 9.04771C8.00496 9.0829 7.97346 9.12614 7.94041 9.17778C7.87415 9.28135 7.80227 9.41774 7.7414 9.58878C7.61764 9.93659 7.5502 10.3972 7.63447 10.9724C7.80005 12.1025 8.54055 13.6222 10.4753 15.6592L11.853 14.3506C10.0446 12.4466 9.5991 11.2739 9.51454 10.6969C9.47375 10.4185 9.5152 10.2719 9.53159 10.2258C9.5408 10.1999 9.54683 10.1927 9.54093 10.2019C9.53808 10.2064 9.53238 10.2148 9.5228 10.2269C9.518 10.233 9.51224 10.2399 9.50535 10.2479C9.5019 10.2518 9.49816 10.256 9.49415 10.2605C9.49213 10.2627 9.49004 10.2649 9.48788 10.2673C9.4868 10.2684 9.4857 10.2696 9.48457 10.2708C9.48401 10.2714 9.48315 10.2723 9.48287 10.2726C9.48201 10.2735 9.48115 10.2744 8.79228 9.62012ZM10.4753 15.6592C12.4045 17.6902 13.8614 18.4887 14.973 18.6692C15.5434 18.7618 16.0051 18.6878 16.3547 18.55C16.5256 18.4826 16.6608 18.4034 16.7623 18.3315C16.8129 18.2955 16.8551 18.2614 16.8891 18.2316C16.9062 18.2167 16.9211 18.2027 16.9342 18.1901C16.9408 18.1839 16.9468 18.1778 16.9524 18.1722C16.9552 18.1694 16.9579 18.1666 16.9604 18.164C16.9617 18.1627 16.9629 18.1614 16.9642 18.1602C16.9648 18.1595 16.9657 18.1585 16.966 18.1583C16.9669 18.1573 16.9677 18.1564 16.2789 17.5021C15.59 16.8478 15.5909 16.8469 15.5918 16.846C15.592 16.8457 15.5929 16.8448 15.5934 16.8441C15.5946 16.843 15.5957 16.8419 15.5968 16.8407C15.5991 16.8384 15.6013 16.8362 15.6033 16.834C15.6076 16.8298 15.6117 16.8258 15.6155 16.8221C15.6231 16.8148 15.63 16.8084 15.6361 16.8031C15.6481 16.7925 15.6571 16.7856 15.663 16.7816C15.6749 16.7731 15.6736 16.776 15.6575 16.7823C15.6331 16.792 15.5179 16.8326 15.2776 16.7936C14.7676 16.7108 13.6673 16.2607 11.853 14.3506L10.4753 15.6592ZM8.53253 2.87023C7.24855 1.05422 4.67927 0.747844 3.12599 2.38316L4.5037 3.69177C5.16602 2.99448 6.33198 3.04925 6.98101 3.96721L8.53253 2.87023ZM1.90249 7.23945C1.87534 6.73363 2.09559 6.22705 2.51539 5.78509L1.13768 4.47648C0.45888 5.19113 -0.0570487 6.18388 0.00507348 7.34128L1.90249 7.23945ZM20.5309 23.4689C20.1775 23.8411 19.8077 24.0405 19.4482 24.076L19.6348 25.967C20.5812 25.8735 21.3471 25.3688 21.9086 24.7775L20.5309 23.4689ZM9.84446 9.89192C11.0702 8.60149 11.157 6.58205 10.1299 5.1295L8.57839 6.22647C9.11314 6.98281 9.03115 7.98911 8.46675 8.58331L9.84446 9.89192ZM21.8634 18.6863C22.9032 19.2848 23.1067 20.7572 22.3305 21.5744L23.7082 22.8829C25.3612 21.1425 24.8798 18.2301 22.8113 17.0395L21.8634 18.6863ZM17.5447 17.549C18.033 17.0349 18.7938 16.9194 19.4432 17.2932L20.3912 15.6464C18.9996 14.8454 17.2738 15.0751 16.167 16.2404L17.5447 17.549Z" fill="#685F84"/>
</g>
</svg>
