<svg width="49" height="48" viewBox="0 0 49 48" fill="none" xmlns="http://www.w3.org/2000/svg">
<g filter="url(#filter0_b_36_936)">
<rect x="0.25" width="48" height="48" rx="24" fill="#ABE6ED" fill-opacity="0.5"/>
<rect x="0.75" y="0.5" width="47" height="47" rx="23.5" stroke="url(#paint0_linear_36_936)"/>
<path d="M17.79 31.5196C17.18 31.5196 16.61 31.3096 16.2 30.9196C15.68 30.4296 15.43 29.6896 15.52 28.8896L15.89 25.6496C15.96 25.0396 16.33 24.2296 16.76 23.7896L24.97 15.0996C27.02 12.9296 29.16 12.8696 31.33 14.9196C33.5 16.9696 33.56 19.1096 31.51 21.2796L23.3 29.9696C22.88 30.4196 22.1 30.8396 21.49 30.9396L18.27 31.4896C18.1 31.4996 17.95 31.5196 17.79 31.5196ZM28.18 14.9096C27.41 14.9096 26.74 15.3896 26.06 16.1096L17.85 24.8096C17.65 25.0196 17.42 25.5196 17.38 25.8096L17.01 29.0496C16.97 29.3796 17.05 29.6496 17.23 29.8196C17.41 29.9896 17.68 30.0496 18.01 29.9996L21.23 29.4496C21.52 29.3996 22 29.1396 22.2 28.9296L30.41 20.2396C31.65 18.9196 32.1 17.6996 30.29 15.9996C29.49 15.2296 28.8 14.9096 28.18 14.9096Z" fill="#493F66"/>
<path d="M29.5904 22.9498C29.5704 22.9498 29.5404 22.9498 29.5204 22.9498C26.4004 22.6398 23.8904 20.2698 23.4104 17.1698C23.3504 16.7598 23.6304 16.3798 24.0404 16.3098C24.4504 16.2498 24.8304 16.5298 24.9004 16.9398C25.2804 19.3598 27.2404 21.2198 29.6804 21.4598C30.0904 21.4998 30.3904 21.8698 30.3504 22.2798C30.3004 22.6598 29.9704 22.9498 29.5904 22.9498Z" fill="#493F66"/>
<path d="M33.25 34.75H15.25C14.84 34.75 14.5 34.41 14.5 34C14.5 33.59 14.84 33.25 15.25 33.25H33.25C33.66 33.25 34 33.59 34 34C34 34.41 33.66 34.75 33.25 34.75Z" fill="#493F66"/>
</g>
<defs>
<filter id="filter0_b_36_936" x="-99.75" y="-100" width="248" height="248" filterUnits="userSpaceOnUse" color-interpolation-filters="sRGB">
<feFlood flood-opacity="0" result="BackgroundImageFix"/>
<feGaussianBlur in="BackgroundImageFix" stdDeviation="50"/>
<feComposite in2="SourceAlpha" operator="in" result="effect1_backgroundBlur_36_936"/>
<feBlend mode="normal" in="SourceGraphic" in2="effect1_backgroundBlur_36_936" result="shape"/>
</filter>
<linearGradient id="paint0_linear_36_936" x1="14" y1="-1.70432e-07" x2="39" y2="46" gradientUnits="userSpaceOnUse">
<stop stop-color="#DED2FF"/>
<stop offset="1" stop-color="white" stop-opacity="0.07"/>
</linearGradient>
</defs>
</svg>
