<svg width="26" height="26" viewBox="0 0 26 26" fill="none" xmlns="http://www.w3.org/2000/svg">
<path d="M24.8357 10.0839H23.8256V10.0318H12.5398V15.0478H19.6267C18.5928 17.9677 15.8146 20.0637 12.5398 20.0637C8.38474 20.0637 5.01592 16.6949 5.01592 12.5398C5.01592 8.38474 8.38474 5.01592 12.5398 5.01592C14.4578 5.01592 16.2027 5.73947 17.5313 6.92134L21.0782 3.37446C18.8385 1.28721 15.8428 0 12.5398 0C5.6147 0 0 5.6147 0 12.5398C0 19.4649 5.6147 25.0796 12.5398 25.0796C19.4649 25.0796 25.0796 19.4649 25.0796 12.5398C25.0796 11.699 24.9931 10.8783 24.8357 10.0839Z" fill="#FFC107"/>
<path d="M12.5425 25.08C15.7815 25.08 18.7246 23.8405 20.9498 21.8247L17.0687 18.5405C15.7674 19.5301 14.1773 20.0654 12.5425 20.0641C9.28086 20.0641 6.51145 17.9844 5.46814 15.082L1.37891 18.2327C3.45424 22.2937 7.66887 25.08 12.5425 25.08Z" fill="#4CAF50"/>
<path d="M24.835 10.0833H23.8249V10.0312H12.5391V15.0472H19.6259C19.1314 16.4368 18.2405 17.6512 17.0634 18.5401L17.0653 18.5389L20.9464 21.8231C20.6718 22.0726 25.0789 18.8091 25.0789 12.5392C25.0789 11.6984 24.9923 10.8777 24.835 10.0833Z" fill="#1976D2"/>
<path d="M1.44922 6.70315L5.56917 9.72462C6.68396 6.96461 9.38378 5.01592 12.5432 5.01592C14.4611 5.01592 16.2061 5.73947 17.5347 6.92134L21.0815 3.37446C18.8419 1.28721 15.8462 0 12.5432 0C7.72664 0 3.54964 2.71926 1.44922 6.70315Z" fill="#FF3D00"/>
</svg>
