<svg width="24" height="25" viewBox="0 0 24 25" fill="none" xmlns="http://www.w3.org/2000/svg">
<path d="M13.8499 3.90393L13.8503 3.90422L19.6101 7.93412C20.039 8.23431 20.4592 8.73845 20.7729 9.33929C21.0865 9.9401 21.2602 10.5736 21.2602 11.0997V17.8797C21.2602 20.0155 19.526 21.7497 17.3902 21.7497H6.61023C4.47656 21.7497 2.74023 20.0076 2.74023 17.8697V10.9697C2.74023 10.483 2.89706 9.88192 3.1831 9.30099C3.46893 8.72047 3.85184 8.22501 4.24151 7.92107L4.24167 7.92094L9.2496 4.01255C9.24994 4.01229 9.25027 4.01203 9.25061 4.01177C10.5009 3.04385 12.5495 2.99281 13.8499 3.90393ZM12.0002 19.9997C12.8244 19.9997 13.5002 19.3239 13.5002 18.4997V15.4997C13.5002 14.6755 12.8244 13.9997 12.0002 13.9997C11.176 13.9997 10.5002 14.6755 10.5002 15.4997V18.4997C10.5002 19.3239 11.176 19.9997 12.0002 19.9997Z" stroke="#685F84" stroke-width="1.5"/>
</svg>
