<svg width="220" height="117" viewBox="0 0 220 117" fill="none" xmlns="http://www.w3.org/2000/svg">
<path d="M74.9124 39.9218C72.4678 41.9438 70.2599 43.769 68.1891 45.4836C68.1891 51.2732 68.2267 56.8594 68.1781 62.4455C68.136 67.2087 65.8286 70.6865 62.0875 71.8325C56.1142 73.662 50.7272 69.5006 50.6874 62.9101C50.6299 53.5298 50.6719 44.1473 50.6719 34.767C50.6719 28.7141 50.683 22.6634 50.6675 16.6104C50.6586 12.761 50.7184 8.92256 50.0701 5.08195C49.5104 1.76566 50.7029 0.422776 54.0147 0.110837C56.5832 -0.130307 59.1695 0.0134947 61.6805 0.626311C65.9149 1.66168 68.0962 4.64612 68.1737 9.53537C68.24 13.772 68.1891 18.0086 68.1913 22.2452C68.1913 23.0616 68.1913 23.8801 68.1913 24.7297C69.3794 24.8248 69.7975 23.9841 70.3727 23.4753C77.9676 16.7653 85.5604 10.0508 93.1066 3.28775C95.6929 0.971434 98.5999 0.168358 101.91 1.11524C105.115 2.03335 107.305 3.95145 107.956 7.44251C108.631 11.0619 107.659 14.0574 104.852 16.356C100.171 20.19 95.4075 23.9222 90.6797 27.7008C89.9165 28.3114 89.1554 28.9287 88.1798 29.7141C90.1244 32.725 92.027 35.6851 93.9451 38.6364C98.2724 45.2889 102.637 51.9192 106.929 58.5961C109.102 61.9765 108.856 65.9631 106.447 68.9476C104.002 71.9762 100.334 73.0537 96.6773 71.7948C94.4893 71.0426 93.0182 69.4719 91.8456 67.5427C86.6599 59.0186 81.4631 50.5011 76.2664 41.9837C75.8814 41.3509 75.4522 40.7403 74.9124 39.9218Z" fill="#ABE6ED"/>
<path d="M167.937 48.862C164.833 45.4594 159.919 45.101 156.048 48.0257C154.358 49.3022 152.767 50.7137 151.032 51.9238C144.084 56.7688 135.132 55.9613 129 50.0987C125.967 47.1983 124.199 43.6342 123.237 39.5879C120.208 41.1498 118.128 40.975 116.71 39.1653C115.483 37.5968 115.511 35.4663 116.783 33.942C118.312 32.1124 120.06 31.9929 123.177 33.5504C123.35 33.0526 123.54 32.5703 123.686 32.0748C126.137 23.8117 131.947 18.9601 140.453 18.0796C143.767 17.7367 146.068 20.2543 145.398 23.5794C144.98 25.648 143.933 27.3824 142.188 28.6302C141.573 29.0704 140.918 29.4576 140.097 29.9886C145.953 30.6633 148.621 28.0439 149.944 20.4888C151.758 21.4246 153.15 22.8029 154.614 24.0639C156.15 25.3869 157.875 26.2608 159.9 26.4444C163.28 26.7519 166.55 24.9245 168.134 21.887C169.809 18.6791 169.238 14.8496 166.605 11.7722C158.267 2.02689 147.479 -0.955337 135.292 1.23487C115.746 4.74584 103.224 21.929 106.049 41.6298C108.166 56.3972 116.894 66.4589 131.086 70.6512C145.022 74.7684 157.765 72.1866 167.614 60.4325C170.645 56.8153 170.822 52.0234 167.937 48.862Z" fill="#ABE6ED"/>
<path d="M141.757 48.2009C145.717 47.9442 148.642 44.7961 148.516 40.752C143.737 40.752 138.95 40.752 134.027 40.752C134.35 45.3979 137.673 48.4664 141.757 48.2009Z" fill="#ABE6ED"/>
<path d="M135.225 34.6698C135.63 34.3822 135.723 33.8225 135.435 33.4176C134.137 31.5925 132.725 30.7075 131.234 30.7827C128.911 30.9022 127.473 33.3889 127.413 33.4951C127.17 33.9265 127.32 34.4707 127.75 34.7163C128.179 34.9618 128.727 34.8114 128.973 34.3844C129.252 33.8999 130.221 32.63 131.331 32.5769C132.365 32.5238 133.342 33.5725 133.973 34.4596C134.148 34.7052 134.424 34.8379 134.705 34.8379C134.884 34.8379 135.068 34.7826 135.225 34.6698Z" fill="#ABE6ED"/>
<path d="M150.37 32.5774C151.406 32.5243 152.381 33.573 153.012 34.4601C153.187 34.7057 153.463 34.8384 153.744 34.8384C153.923 34.8384 154.107 34.7853 154.264 34.6725C154.669 34.3849 154.762 33.8252 154.474 33.4203C153.176 31.5951 151.769 30.7124 150.273 30.7854C147.95 30.9049 146.512 33.3916 146.452 33.4978C146.209 33.9292 146.359 34.4734 146.789 34.719C147.218 34.9645 147.766 34.8141 148.012 34.3871C148.291 33.9004 149.26 32.6305 150.37 32.5774Z" fill="#ABE6ED"/>
<path d="M96.4098 94.6106C94.8789 93.9402 93.3391 94.5619 92.6687 96.1504C92.3701 96.8583 92.1267 97.5928 91.8634 98.3162C91.0847 100.453 90.3082 102.593 89.5162 104.776C89.2352 104.522 89.2064 104.247 89.1179 104.006C88.1556 101.411 87.1888 98.8184 86.2441 96.2167C85.9432 95.3893 85.4344 94.7898 84.5937 94.5331C83.4389 94.1814 82.3725 94.3827 81.5407 95.2787C80.6757 96.2101 80.6115 97.3295 81.1093 98.4445C81.8261 100.048 82.6093 101.624 83.3681 103.21C84.4256 105.424 85.4875 107.637 86.5627 109.878C86.2618 110.493 85.9698 111.092 85.6999 111.648C84.8681 112.057 83.992 112.057 83.211 112.376C82.1004 112.829 81.6867 113.544 81.7973 114.683C81.9124 115.86 82.6469 116.51 83.6137 116.999C84.5782 116.999 85.545 116.999 86.5096 116.999C86.5959 116.851 86.7574 116.871 86.8901 116.833C88.7883 116.28 90.1467 115.13 90.9166 113.287C91.286 112.4 91.7196 111.537 92.1223 110.661C94.0006 106.568 95.8877 102.48 97.7527 98.3804C98.4518 96.8384 97.8611 95.2455 96.4098 94.6106Z" fill="#ABE6ED"/>
<path d="M25.0028 87.213C24.7993 87.1444 24.5935 87.0847 24.3878 87.0205C24.1466 87.0205 23.9055 87.0205 23.6643 87.0205C23.463 87.0869 23.2595 87.151 23.0604 87.2218C21.764 87.6842 20.983 89.0293 21.2286 90.3766C21.4764 91.7394 22.6334 92.6885 24.0471 92.6885C25.4475 92.6885 26.6554 91.7394 26.8678 90.474C27.1178 88.9674 26.3811 87.6776 25.0028 87.213Z" fill="#ABE6ED"/>
<path d="M14.0348 101.348C13.422 100.408 12.8158 99.4628 12.1964 98.5027C12.5083 98.2527 12.7495 98.0558 12.9928 97.8611C14.4994 96.6576 16.0193 95.4652 17.5126 94.244C18.4086 93.5095 18.7183 92.5559 18.5037 91.4011C18.2958 90.2883 17.5989 89.6755 16.5746 89.3835C15.5193 89.0826 14.5923 89.337 13.7671 90.0759C11.3601 92.2329 8.93982 94.3723 6.51732 96.5138C6.33369 96.6753 6.20095 96.9452 5.82264 96.9142C5.82264 96.6443 5.82264 96.3833 5.82264 96.1222C5.82264 94.7705 5.83813 93.421 5.81601 92.0692C5.79167 90.5095 5.097 89.5582 3.74527 89.2286C2.9444 89.0339 2.1192 88.9874 1.30063 89.0649C0.243139 89.1644 -0.135167 89.5936 0.0418192 90.6511C0.247566 91.8768 0.229868 93.1002 0.23208 94.328C0.236505 96.2572 0.234291 98.1885 0.234291 100.118C0.234291 103.109 0.221018 106.1 0.238717 109.093C0.251991 111.195 1.96876 112.522 3.87358 111.938C5.06602 111.573 5.80273 110.463 5.81601 108.945C5.83149 107.164 5.82043 105.381 5.82043 103.536C6.48192 102.989 7.18544 102.407 7.96419 101.761C8.13675 102.023 8.27391 102.217 8.3978 102.419C10.0548 105.135 11.7119 107.85 13.3667 110.569C13.7406 111.184 14.2096 111.684 14.9065 111.925C16.0724 112.325 17.2427 111.982 18.0214 111.016C18.7891 110.064 18.8688 108.792 18.1763 107.715C16.8069 105.582 15.4153 103.469 14.0348 101.348Z" fill="#ABE6ED"/>
<path d="M187.164 88.9385C185.567 88.9319 184.383 90.1907 184.379 91.9052C184.377 93.1574 184.379 94.4074 184.379 95.81C182.094 94.226 179.782 94.1508 177.441 95.1419C173.505 96.8056 171.501 101.454 172.724 105.889C174.547 112.504 182.162 113.765 185.764 110.042C185.826 109.978 185.91 109.934 186.043 109.841C186.288 110.374 186.456 110.905 186.812 111.33C187.363 111.987 188.231 112.241 189.031 111.978C189.874 111.703 189.954 111.02 189.954 110.29C189.956 109.566 189.956 108.841 189.956 108.117C189.956 102.688 189.965 97.2591 189.947 91.83C189.938 90.131 188.757 88.9451 187.164 88.9385ZM181.187 106.657C179.459 106.666 178.007 105.137 178.001 103.308C177.994 101.456 179.401 99.9692 181.164 99.9604C182.906 99.9537 184.374 101.474 184.377 103.285C184.379 105.077 182.892 106.648 181.187 106.657Z" fill="#ABE6ED"/>
<path d="M166.464 88.9404C164.849 88.9449 163.676 90.1838 163.672 91.9027C163.667 93.1549 163.672 94.4071 163.672 95.7699C160.829 93.9624 158.108 94.1461 155.471 95.8407C152.305 97.8738 150.935 102.119 152.07 106.035C153.929 112.46 161.466 113.796 165.127 109.986C165.174 109.938 165.247 109.918 165.353 109.858C165.581 110.374 165.745 110.904 166.114 111.325C166.72 112.013 167.61 112.263 168.402 111.96C169.229 111.643 169.249 110.944 169.249 110.221C169.247 104.115 169.253 98.0088 169.245 91.9027C169.242 90.1683 168.072 88.9382 166.464 88.9404ZM160.481 106.657C158.758 106.674 157.329 105.152 157.322 103.301C157.318 101.429 158.703 99.9645 160.475 99.9623C162.22 99.9601 163.669 101.469 163.669 103.292C163.672 105.086 162.198 106.639 160.481 106.657Z" fill="#ABE6ED"/>
<path d="M68.4681 90.8303C68.008 89.545 66.7779 88.7839 65.466 88.9852C64.028 89.2087 63.0568 90.2706 63.0369 91.6909C63.017 93.0072 63.0324 94.3236 63.0324 95.6289C62.7625 95.6842 62.6409 95.5404 62.5059 95.4585C60.6675 94.3413 58.7184 94.2462 56.7295 94.9121C54.1234 95.7815 52.3955 97.5912 51.5703 100.177C50.4354 103.737 51.004 107.014 53.6278 109.766C56.1278 112.389 61.1343 113.297 64.6961 109.83C64.9704 110.423 65.1452 111.005 65.5855 111.447C66.1762 112.038 67.0523 112.252 67.7801 111.96C68.5589 111.648 68.6075 110.982 68.6075 110.281C68.6031 104.153 68.6053 98.027 68.6031 91.8989C68.6053 91.536 68.5942 91.1799 68.4681 90.8303ZM59.8555 106.657C58.141 106.686 56.6853 105.153 56.683 103.31C56.6808 101.441 58.068 99.9628 59.829 99.9606C61.5834 99.9584 63.0258 101.456 63.0302 103.284C63.0346 105.089 61.5856 106.629 59.8555 106.657Z" fill="#ABE6ED"/>
<path d="M123.883 104.341C123.817 104.392 123.75 104.445 123.684 104.496L123.68 104.498C123.215 104.863 122.766 105.248 122.284 105.584C121.379 106.217 120.363 106.544 119.352 106.586C119.343 106.589 119.332 106.589 119.324 106.589C118.972 106.602 118.62 106.582 118.27 106.522C118.262 106.522 118.251 106.52 118.242 106.518C118.193 106.511 118.14 106.5 118.089 106.491C116.118 106.126 114.492 104.783 113.731 102.985C113.731 102.985 113.726 102.976 113.72 102.956C113.715 102.949 113.713 102.938 113.711 102.929C113.653 102.77 113.492 102.292 113.386 101.668C113.304 101.202 113.255 100.648 113.299 100.084C113.299 100.078 113.299 100.069 113.302 100.062C113.31 99.9427 113.326 99.8211 113.346 99.6994C113.348 99.6994 113.35 99.7016 113.352 99.7016C113.379 99.5401 113.414 99.3786 113.454 99.2215C113.459 99.2105 113.461 99.1994 113.463 99.1861C114.109 96.7216 116.308 94.8853 118.952 94.788C119.018 94.7814 119.085 94.7814 119.149 94.7836H119.173C121.009 94.7836 122.649 95.6198 123.733 96.9362C124.144 97.226 124.598 97.4118 125.113 97.4583C126.191 97.5579 127.233 96.9738 127.737 96.0048C128.272 94.9805 128.089 93.7615 127.25 92.7792C124.591 89.6709 121.151 88.7196 117.264 89.4187C111.032 90.5381 107.038 96.0181 107.939 102.299C108.614 107.007 111.397 110.217 115.921 111.553C120.366 112.867 124.43 112.042 127.571 108.297C128.538 107.142 128.593 105.615 127.675 104.606C126.686 103.522 125.118 103.409 123.883 104.341Z" fill="#ABE6ED"/>
<path d="M38.698 94.6745C37.1494 94.951 35.7888 95.6612 34.4725 96.6434C34.2313 96.0903 34.0632 95.5837 33.7048 95.1767C33.1606 94.5572 32.2336 94.3205 31.4549 94.6125C30.6761 94.9068 30.5898 95.5594 30.5898 96.2718C30.5943 100.568 30.5854 104.862 30.5965 109.159C30.6009 110.838 31.7734 112.055 33.3619 112.072C34.9592 112.09 36.1605 110.838 36.1671 109.128C36.1738 107.221 36.1406 105.314 36.1782 103.409C36.218 101.457 37.7335 99.9398 39.5542 99.9597C41.3241 99.9774 42.6094 101.453 42.6139 103.477C42.6183 105.433 42.5984 107.387 42.6205 109.342C42.6382 110.802 43.813 111.975 45.2908 112.07C46.6514 112.156 48.0805 111.081 48.1248 109.716C48.2155 106.9 48.419 104.064 47.9898 101.263C47.273 96.5992 43.3417 93.847 38.698 94.6745Z" fill="#ABE6ED"/>
<path d="M148.798 97.4036C148.798 96.9899 148.781 96.5872 148.617 96.1978C148.084 94.9457 146.79 94.282 145.411 94.5629C144.188 94.8129 143.27 95.9191 143.259 97.2133C143.241 99.2155 143.272 101.218 143.248 103.22C143.223 105.341 141.243 106.985 139.263 106.563C137.814 106.253 136.832 104.908 136.814 103.145C136.794 101.24 136.814 99.3327 136.808 97.4279C136.801 95.7023 135.651 94.5231 133.987 94.5253C132.392 94.5253 131.241 95.731 131.237 97.4213C131.23 99.4234 131.239 101.426 131.235 103.428C131.233 104.253 131.345 105.063 131.54 105.861C132.584 110.142 136.111 112.56 140.434 111.939C142.091 111.7 143.553 110.978 144.942 109.945C145.197 110.465 145.358 110.978 145.721 111.381C146.283 112.009 147.181 112.237 147.967 111.945C148.763 111.649 148.805 110.989 148.803 110.284C148.794 105.992 148.796 101.698 148.798 97.4036Z" fill="#ABE6ED"/>
<path d="M219.924 102.445C219.911 102.085 219.886 101.722 219.818 101.368C219.001 97.1956 215.539 94.501 211.041 94.5275C205.208 94.5629 201.035 100.238 202.734 105.819C204.086 110.251 208.48 112.788 213.214 111.872C214.482 111.629 215.712 111.288 216.648 110.324C217.703 109.235 217.477 107.609 216.15 106.894C215.181 106.37 214.174 106.341 213.179 106.875C212.862 107.045 212.539 107.222 212.201 107.333C210.389 107.914 208.327 106.662 208.196 104.906C208.466 104.775 208.761 104.839 209.044 104.837C211.962 104.822 214.88 104.85 217.798 104.788C219.537 104.753 219.988 104.195 219.924 102.445ZM208.092 101.472C208.351 99.95 209.769 98.9212 211.433 99.023C212.88 99.1115 214.152 100.215 214.218 101.472H208.092Z" fill="#ABE6ED"/>
<path d="M78.1621 100.6C78.1621 98.6461 78.1643 96.6926 78.1599 94.7369C78.1577 93.675 78.1887 92.6131 78.1245 91.5556C78.0316 90.0689 76.7241 88.9805 75.2087 89.0468C73.7596 89.111 72.5959 90.2658 72.5937 91.7127C72.5826 97.5975 72.5848 103.485 72.5915 109.372C72.5937 110.593 73.3813 111.602 74.545 111.942C76.3856 112.482 78.1267 111.197 78.1511 109.212C78.1865 106.343 78.1599 103.471 78.1599 100.6C78.1621 100.6 78.1621 100.6 78.1621 100.6Z" fill="#ABE6ED"/>
<path d="M199.48 91.9468C199.478 90.3318 198.318 89.0862 196.792 89.0442C195.181 89 193.929 90.1548 193.923 91.8251C193.896 97.6391 193.896 103.451 193.92 109.265C193.927 110.911 195.146 112.079 196.708 112.072C198.283 112.064 199.478 110.818 199.48 109.17C199.484 106.3 199.482 103.429 199.482 100.559C199.482 97.6878 199.484 94.8184 199.48 91.9468Z" fill="#ABE6ED"/>
<path d="M26.8976 97.5315C26.8976 97.1709 26.8954 96.8103 26.787 96.4586C26.3755 95.1068 25.1233 94.3347 23.6344 94.5206C22.3402 94.6821 21.3402 95.828 21.3336 97.2572C21.3137 101.186 21.3203 105.115 21.3269 109.045C21.3292 110.83 22.4951 112.082 24.1189 112.075C25.7494 112.069 26.8888 110.828 26.8976 109.031C26.9065 107.126 26.8998 105.222 26.8998 103.319C26.8976 101.388 26.8998 99.4585 26.8976 97.5315Z" fill="#ABE6ED"/>
</svg>
