<svg width="22" height="26" viewBox="0 0 22 26" fill="none" xmlns="http://www.w3.org/2000/svg">
<g id="Group 1525">
<path id="Vector" d="M11 3.67822C12.9074 3.67822 14.7366 4.35172 16.0853 5.55057C17.434 6.7494 18.1916 8.37538 18.1916 10.0708C18.1916 12.6932 18.7844 14.6569 19.5531 16.101C20.5352 17.946 21.0262 18.8686 20.9989 19.0793C20.9671 19.3252 20.9265 19.3929 20.7243 19.5365C20.551 19.6597 19.6892 19.6597 17.9655 19.6597H4.03444C2.31073 19.6597 1.44889 19.6597 1.27564 19.5365C1.07354 19.3929 1.03294 19.3252 1.00108 19.0793C0.973765 18.8686 1.46481 17.946 2.44691 16.101C3.21557 14.6569 3.80834 12.6932 3.80834 10.0708C3.80834 8.37538 4.56603 6.7494 5.91472 5.55057C7.26342 4.35172 9.09262 3.67822 11 3.67822ZM11 3.67822V1.01465M7.47608 23.655C8.4166 24.4851 9.6521 24.9889 11.0053 24.9889C12.3584 24.9889 13.5939 24.4851 14.5346 23.655" stroke="#881d91" stroke-width="2" stroke-linecap="round" stroke-linejoin="round"/>
</g>
</svg>
