<svg width="22" height="23" viewBox="0 0 22 23" fill="none" xmlns="http://www.w3.org/2000/svg">
<path d="M16.2 13.4997C16.477 13.4997 16.6155 13.4997 16.7278 13.5612C16.8204 13.6119 16.9065 13.7072 16.9478 13.8044C16.9978 13.9222 16.9852 14.0476 16.96 14.2984C16.8296 15.5984 16.3822 16.8511 15.6518 17.9442C14.7727 19.2598 13.5233 20.2852 12.0615 20.8907C10.5997 21.4962 8.99113 21.6546 7.43928 21.346C5.88743 21.0373 4.46197 20.2754 3.34315 19.1565C2.22433 18.0377 1.4624 16.6123 1.15372 15.0604C0.84504 13.5086 1.00347 11.9 1.60897 10.4382C2.21447 8.97641 3.23985 7.72698 4.55544 6.84793C5.64856 6.11752 6.90125 5.67009 8.20131 5.53965C8.45207 5.51449 8.57745 5.50191 8.69528 5.5519C8.79249 5.59314 8.88776 5.67933 8.9385 5.77193C9 5.88419 9 6.02269 9 6.29968V12.6997C9 12.9797 9 13.1197 9.0545 13.2267C9.10244 13.3208 9.17893 13.3972 9.27301 13.4452C9.37996 13.4997 9.51998 13.4997 9.8 13.4997H16.2Z" fill="#B2CBF2"/>
<path d="M13 2.29968C13 2.02268 13 1.88418 13.0615 1.77192C13.1122 1.67932 13.2075 1.59313 13.3047 1.55189C13.4225 1.5019 13.5479 1.51447 13.7987 1.53963C15.6271 1.72302 17.346 2.53198 18.6569 3.84283C19.9677 5.15367 20.7767 6.87258 20.9601 8.70098C20.9852 8.95175 20.9978 9.07714 20.9478 9.19497C20.9066 9.29217 20.8204 9.38744 20.7278 9.43818C20.6155 9.49968 20.477 9.49968 20.2 9.49968L13.8 9.49968C13.52 9.49968 13.38 9.49968 13.273 9.44519C13.1789 9.39725 13.1024 9.32076 13.0545 9.22668C13 9.11972 13 8.97971 13 8.69968V2.29968Z" fill="#B2CBF2"/>
<path d="M16.2 13.4997C16.477 13.4997 16.6155 13.4997 16.7278 13.5612C16.8204 13.6119 16.9065 13.7072 16.9478 13.8044C16.9978 13.9222 16.9852 14.0476 16.96 14.2984C16.8296 15.5984 16.3822 16.8511 15.6518 17.9442C14.7727 19.2598 13.5233 20.2852 12.0615 20.8907C10.5997 21.4962 8.99113 21.6546 7.43928 21.346C5.88743 21.0373 4.46197 20.2754 3.34315 19.1565C2.22433 18.0377 1.4624 16.6123 1.15372 15.0604C0.84504 13.5086 1.00347 11.9 1.60897 10.4382C2.21447 8.97641 3.23985 7.72698 4.55544 6.84793C5.64856 6.11752 6.90125 5.67009 8.20131 5.53965C8.45207 5.51449 8.57745 5.50191 8.69528 5.5519C8.79249 5.59314 8.88776 5.67933 8.9385 5.77193C9 5.88419 9 6.02269 9 6.29968V12.6997C9 12.9797 9 13.1197 9.0545 13.2267C9.10244 13.3208 9.17893 13.3972 9.27301 13.4452C9.37996 13.4997 9.51998 13.4997 9.8 13.4997H16.2Z" stroke="#B2CBF2" stroke-width="1.5" stroke-linecap="round" stroke-linejoin="round"/>
<path d="M13 2.29968C13 2.02268 13 1.88418 13.0615 1.77192C13.1122 1.67932 13.2075 1.59313 13.3047 1.55189C13.4225 1.5019 13.5479 1.51447 13.7987 1.53963C15.6271 1.72302 17.346 2.53198 18.6569 3.84283C19.9677 5.15367 20.7767 6.87258 20.9601 8.70098C20.9852 8.95175 20.9978 9.07714 20.9478 9.19497C20.9066 9.29217 20.8204 9.38744 20.7278 9.43818C20.6155 9.49968 20.477 9.49968 20.2 9.49968L13.8 9.49968C13.52 9.49968 13.38 9.49968 13.273 9.44519C13.1789 9.39725 13.1024 9.32076 13.0545 9.22668C13 9.11972 13 8.97971 13 8.69968V2.29968Z" stroke="#B2CBF2" stroke-width="1.5" stroke-linecap="round" stroke-linejoin="round"/>
</svg>
