<svg width="24" height="25" viewBox="0 0 24 25" fill="none" xmlns="http://www.w3.org/2000/svg">
<path d="M17.2 14.4997C17.477 14.4997 17.6155 14.4997 17.7278 14.5612C17.8204 14.6119 17.9065 14.7072 17.9478 14.8044C17.9978 14.9222 17.9852 15.0476 17.96 15.2984C17.8296 16.5984 17.3822 17.8511 16.6518 18.9442C15.7727 20.2598 14.5233 21.2852 13.0615 21.8907C11.5997 22.4962 9.99113 22.6546 8.43928 22.346C6.88743 22.0373 5.46197 21.2754 4.34315 20.1565C3.22433 19.0377 2.4624 17.6123 2.15372 16.0604C1.84504 14.5086 2.00347 12.9 2.60897 11.4382C3.21447 9.97641 4.23985 8.72698 5.55544 7.84793C6.64856 7.11752 7.90125 6.67009 9.20131 6.53965C9.45207 6.51449 9.57745 6.50191 9.69528 6.5519C9.79249 6.59314 9.88776 6.67933 9.9385 6.77193C10 6.88419 10 7.02268 10 7.29968V13.6997C10 13.9797 10 14.1197 10.0545 14.2267C10.1024 14.3208 10.1789 14.3972 10.273 14.4452C10.38 14.4997 10.52 14.4997 10.8 14.4997H17.2Z" stroke="#685F84" stroke-width="1.5" stroke-linecap="round" stroke-linejoin="round"/>
<path d="M14 3.29968C14 3.02268 14 2.88418 14.0615 2.77192C14.1122 2.67932 14.2075 2.59313 14.3047 2.55189C14.4225 2.5019 14.5479 2.51447 14.7987 2.53963C16.6271 2.72302 18.346 3.53198 19.6569 4.84283C20.9677 6.15367 21.7767 7.87258 21.9601 9.70098C21.9852 9.95175 21.9978 10.0771 21.9478 10.195C21.9066 10.2922 21.8204 10.3874 21.7278 10.4382C21.6155 10.4997 21.477 10.4997 21.2 10.4997L14.8 10.4997C14.52 10.4997 14.38 10.4997 14.273 10.4452C14.1789 10.3972 14.1024 10.3208 14.0545 10.2267C14 10.1197 14 9.97971 14 9.69968V3.29968Z" stroke="#685F84" stroke-width="1.5" stroke-linecap="round" stroke-linejoin="round"/>
</svg>
