<svg width="25" height="27" viewBox="0 0 25 27" fill="none" xmlns="http://www.w3.org/2000/svg">
<g id="Group 1529">
<path id="Vector" d="M1 11.5209C1 7.52384 1 5.52535 1.4719 4.85301C1.94379 4.18067 3.8229 3.53745 7.58114 2.25099L8.29715 2.0059C10.2562 1.3353 11.2358 1 12.25 1C13.2642 1 14.2438 1.3353 16.2029 2.0059L16.9189 2.25099C20.6771 3.53745 22.5562 4.18067 23.0281 4.85301C23.5 5.52535 23.5 7.52384 23.5 11.5209C23.5 12.1245 23.5 12.7792 23.5 13.4892C23.5 20.5367 18.2013 23.9569 14.8768 25.4091C13.975 25.803 13.5241 26 12.25 26C10.9759 26 10.525 25.803 9.6232 25.4091C6.2987 23.9569 1 20.5367 1 13.4892C1 12.7792 1 12.1245 1 11.5209Z" stroke="#881d91" stroke-width="2"/>
<path id="Vector_2" d="M12.25 12.25C13.6307 12.25 14.75 11.1307 14.75 9.75C14.75 8.36929 13.6307 7.25 12.25 7.25C10.8693 7.25 9.75 8.36929 9.75 9.75C9.75 11.1307 10.8693 12.25 12.25 12.25Z" stroke="#881d91" stroke-width="2"/>
<path id="Vector_3" d="M17.25 17.25C17.25 18.6307 17.25 19.75 12.25 19.75C7.25 19.75 7.25 18.6307 7.25 17.25C7.25 15.8693 9.48857 14.75 12.25 14.75C15.0114 14.75 17.25 15.8693 17.25 17.25Z" stroke="#881d91" stroke-width="2"/>
</g>
</svg>
