<svg width="58" height="58" viewBox="0 0 58 58" fill="none" xmlns="http://www.w3.org/2000/svg">
<g filter="url(#filter0_d_80_422)">
<circle cx="28.8735" cy="24.8735" r="20.8735" fill="#B2CBF2"/>
<circle cx="28.8735" cy="24.8735" r="19.8735" stroke="white" stroke-width="2"/>
</g>
<path d="M29.3548 28.4839C29.3548 29.1464 28.869 29.667 28.2507 29.667C27.6323 29.667 27.1465 29.1464 27.1465 28.4839C27.1465 27.8214 28.2507 26.3545 28.2507 26.3545C28.2507 26.3545 29.3548 27.8689 29.3548 28.4839Z" fill="white"/>
<path fill-rule="evenodd" clip-rule="evenodd" d="M20.8769 23.7806C20.8268 23.7773 20.7775 23.7692 20.7289 23.7563C19.6982 23.4802 19.4382 21.1068 20.1482 18.4563C20.8581 15.8057 22.2698 13.8812 23.3005 14.1572C23.3491 14.1701 23.3962 14.1876 23.4413 14.2097C23.4833 14.2111 23.5252 14.2174 23.5672 14.2284L24.5085 14.4807L24.5311 14.4874C25.2726 14.7209 25.5823 15.4298 25.7474 16.243C25.8699 16.8486 25.9379 17.6431 25.9853 18.6368L26.6324 18.8102C26.6944 18.5371 26.8247 18.2842 27.0111 18.0752C27.1974 17.8662 27.4337 17.7078 27.6979 17.6149C27.7327 16.105 28.2064 15.0715 29.0433 14.5508C29.8985 14.0192 30.9381 14.1478 31.7888 14.5343C32.6468 14.9246 33.4374 15.6274 33.863 16.4588C34.2992 17.3107 34.3671 18.3475 33.6477 19.2469C33.1619 19.8536 32.9935 20.4062 32.9962 20.8821C33.0001 21.3624 33.1795 21.8201 33.4854 22.2281C34.1181 23.0706 35.2029 23.5945 35.9769 23.5945C36.1234 23.5945 36.2638 23.6527 36.3673 23.7562C36.4709 23.8598 36.529 24.0002 36.529 24.1466C36.529 24.293 36.4709 24.4334 36.3673 24.537C36.2638 24.6405 36.1234 24.6987 35.9769 24.6987C34.8187 24.6987 33.4197 23.9804 32.602 22.8906C32.1836 22.333 31.8976 21.6512 31.8926 20.8899C31.8871 20.123 32.167 19.3302 32.7853 18.5568C33.1701 18.0759 33.169 17.5255 32.8803 16.9623C32.5822 16.3793 31.9914 15.84 31.3317 15.5396C30.6637 15.236 30.0476 15.2266 29.6258 15.4888C29.2371 15.7306 28.8363 16.317 28.8021 17.6166C29.1245 17.7311 29.4036 17.9427 29.6009 18.2222C29.7982 18.5018 29.9041 18.8357 29.904 19.1779V21.9383C30.5742 22.4418 31.0082 23.2434 31.0082 24.1466V24.638L32.3067 25.6648V29.4604L33.1221 33.2908C33.4848 34.4739 32.7997 36.2924 31.0833 36.2924H25.4123C23.6953 36.2924 23.0107 34.4739 23.3734 33.2908L24.1889 29.4604V25.6648L25.4873 24.638V24.1466C25.4869 23.718 25.5865 23.2952 25.7782 22.9118C25.9699 22.5284 26.2484 22.1951 26.5915 21.9383V21.6567L25.2444 21.2956C24.7271 22.0962 24.2866 22.7239 23.8902 23.1733C23.3409 23.7949 22.7181 24.2537 21.9595 24.0853L21.9364 24.0798L20.9956 23.8275C20.9544 23.8165 20.9145 23.8007 20.8769 23.7806ZM21.535 22.0509C22.0059 21.4088 22.4857 20.3985 22.8147 19.1707C23.1438 17.9428 23.2332 16.8282 23.146 16.0365C23.1106 15.7086 23.0482 15.4761 22.9875 15.3265C22.8594 15.4259 22.6894 15.5959 22.4945 15.862C22.0241 16.5041 21.5438 17.515 21.2148 18.7423C20.8863 19.9695 20.7969 21.0847 20.8835 21.8764C20.9194 22.2044 20.9812 22.4368 21.042 22.5864C21.1701 22.487 21.3401 22.317 21.535 22.0509ZM22.1875 23.0038C22.8462 22.2375 23.4772 20.9644 23.8813 19.4567C24.2855 17.9489 24.3755 16.5312 24.1883 15.538L24.2087 15.5435C24.3247 15.5838 24.5151 15.724 24.6647 16.4616C24.8083 17.1672 24.8729 18.2183 24.9242 19.736C24.1209 21.0251 23.5385 21.9029 23.0626 22.4423C22.5641 23.0065 22.3283 23.033 22.208 23.0093L22.1875 23.0038ZM28.2478 22.4904C27.8085 22.4904 27.3872 22.6648 27.0766 22.9755C26.766 23.2861 26.5915 23.7073 26.5915 24.1466H29.904C29.904 23.7073 29.7295 23.2861 29.4189 22.9755C29.1083 22.6648 28.687 22.4904 28.2478 22.4904ZM28.7999 21.3862V19.1779C28.7999 19.0314 28.7417 18.891 28.6381 18.7875C28.5346 18.6839 28.3942 18.6258 28.2478 18.6258C28.1013 18.6258 27.9609 18.6839 27.8574 18.7875C27.7538 18.891 27.6957 19.0314 27.6957 19.1779V21.3862H28.7999ZM26.4921 25.2508L25.293 26.1992V29.5769L24.7834 31.9691C25.5613 32.2192 27.1701 32.5764 28.4515 31.7979C29.7119 31.0322 31.006 31.3651 31.637 31.6146L31.2025 29.5769V26.1992L30.0034 25.2508H26.4921Z" fill="white"/>
<defs>
<filter id="filter0_d_80_422" x="0" y="0" width="57.7461" height="57.7471" filterUnits="userSpaceOnUse" color-interpolation-filters="sRGB">
<feFlood flood-opacity="0" result="BackgroundImageFix"/>
<feColorMatrix in="SourceAlpha" type="matrix" values="0 0 0 0 0 0 0 0 0 0 0 0 0 0 0 0 0 0 127 0" result="hardAlpha"/>
<feOffset dy="4"/>
<feGaussianBlur stdDeviation="4"/>
<feComposite in2="hardAlpha" operator="out"/>
<feColorMatrix type="matrix" values="0 0 0 0 0 0 0 0 0 0 0 0 0 0 0 0 0 0 0.18 0"/>
<feBlend mode="normal" in2="BackgroundImageFix" result="effect1_dropShadow_80_422"/>
<feBlend mode="normal" in="SourceGraphic" in2="effect1_dropShadow_80_422" result="shape"/>
</filter>
</defs>
</svg>
