<svg width="56" height="57" viewBox="0 0 56 57" fill="none" xmlns="http://www.w3.org/2000/svg">
<rect y="0.5" width="56" height="56" rx="28" fill="#B2CBF2"/>
<path d="M29.3125 32.5937C29.3125 33.3812 28.735 34 28 34C27.265 34 26.6875 33.3812 26.6875 32.5937C26.6875 31.8062 28 30.0625 28 30.0625C28 30.0625 29.3125 31.8626 29.3125 32.5937Z" fill="#685F84"/>
<path fill-rule="evenodd" clip-rule="evenodd" d="M19.2364 27.0036C19.1769 26.9997 19.1183 26.9901 19.0605 26.9747C17.8353 26.6466 17.5262 23.8254 18.3701 20.6747C19.2141 17.5241 20.8921 15.2364 22.1173 15.5645C22.175 15.5798 22.231 15.6007 22.2847 15.6269C22.3345 15.6286 22.3844 15.6361 22.4343 15.6492L23.5532 15.9491L23.5801 15.957C24.4614 16.2346 24.8296 17.0772 25.0258 18.0438C25.1715 18.7637 25.2522 19.7081 25.3087 20.8893L26.0778 21.0954C26.1516 20.7708 26.3065 20.4702 26.528 20.2218C26.7495 19.9733 27.0303 19.7851 27.3443 19.6746C27.3857 17.8798 27.9488 16.6513 28.9436 16.0324C29.9602 15.4005 31.1959 15.5534 32.2072 16.0127C33.227 16.4767 34.1667 17.3121 34.6727 18.3004C35.1911 19.313 35.2718 20.5455 34.4168 21.6145C33.8393 22.3357 33.6391 22.9926 33.6424 23.5583C33.647 24.1292 33.8603 24.6733 34.2238 25.1582C34.9759 26.1597 36.2654 26.7825 37.1855 26.7825C37.3595 26.7825 37.5264 26.8516 37.6495 26.9747C37.7726 27.0977 37.8417 27.2647 37.8417 27.4387C37.8417 27.6128 37.7726 27.7797 37.6495 27.9027C37.5264 28.0258 37.3595 28.095 37.1855 28.095C35.8087 28.095 34.1457 27.2412 33.1738 25.9457C32.6764 25.2829 32.3364 24.4725 32.3305 23.5675C32.324 22.656 32.6567 21.7136 33.3917 20.7942C33.8491 20.2226 33.8478 19.5683 33.5046 18.8989C33.1502 18.2059 32.448 17.5648 31.6638 17.2078C30.8697 16.8468 30.1373 16.8357 29.636 17.1474C29.174 17.4348 28.6975 18.1318 28.6568 19.6766C29.0402 19.8127 29.3719 20.0642 29.6064 20.3966C29.841 20.7289 29.9669 21.1257 29.9667 21.5325V24.8137C30.7634 25.4122 31.2792 26.3651 31.2792 27.4387V28.0228L32.8227 29.2434V33.7551L33.792 38.3082C34.2232 39.7145 33.4088 41.8762 31.3685 41.8762H24.6275C22.5865 41.8762 21.7728 39.7145 22.2039 38.3082L23.1732 33.7551V29.2434L24.7167 28.0228V27.4387C24.7162 26.9292 24.8346 26.4266 25.0624 25.9709C25.2903 25.5152 25.6213 25.119 26.0292 24.8137V24.479L24.428 24.0498C23.8131 25.0014 23.2894 25.7476 22.8182 26.2817C22.1652 27.0207 21.425 27.566 20.5233 27.3659L20.4957 27.3593L19.3775 27.0594C19.3284 27.0463 19.2811 27.0276 19.2364 27.0036ZM20.0186 24.9476C20.5784 24.1844 21.1487 22.9834 21.5398 21.5239C21.9309 20.0644 22.0373 18.7395 21.9336 17.7984C21.8916 17.4086 21.8174 17.1323 21.7452 16.9545C21.593 17.0726 21.3908 17.2747 21.1592 17.591C20.6001 18.3542 20.0291 19.5558 19.638 21.0147C19.2475 22.4735 19.1412 23.7991 19.2443 24.7402C19.2869 25.13 19.3604 25.4063 19.4326 25.5841C19.5848 25.466 19.787 25.2639 20.0186 24.9476ZM20.7943 26.0803C21.5772 25.1694 22.3273 23.6561 22.8077 21.8639C23.2881 20.0716 23.395 18.3864 23.1726 17.2058L23.1968 17.2124C23.3347 17.2603 23.5611 17.427 23.7389 18.3037C23.9095 19.1424 23.9863 20.3919 24.0473 22.1959C23.0925 23.7283 22.4002 24.7717 21.8345 25.4129C21.2419 26.0836 20.9617 26.1151 20.8186 26.0868L20.7943 26.0803ZM27.998 25.47C27.4758 25.47 26.9751 25.6774 26.6059 26.0466C26.2366 26.4158 26.0292 26.9166 26.0292 27.4387H29.9667C29.9667 26.9166 29.7593 26.4158 29.3901 26.0466C29.0209 25.6774 28.5201 25.47 27.998 25.47ZM28.6542 24.1575V21.5325C28.6542 21.3584 28.5851 21.1915 28.462 21.0684C28.3389 20.9453 28.172 20.8762 27.998 20.8762C27.8239 20.8762 27.657 20.9453 27.5339 21.0684C27.4109 21.1915 27.3417 21.3584 27.3417 21.5325V24.1575H28.6542ZM25.9111 28.7512L24.4857 29.8786V33.8936L23.88 36.7371C24.8047 37.0344 26.717 37.459 28.2401 36.5337C29.7383 35.6235 31.2766 36.0192 32.0267 36.3158L31.5102 33.8936V29.8786L30.0848 28.7512H25.9111Z" fill="#685F84"/>
</svg>
