<svg width="113" height="113" viewBox="0 0 113 113" fill="none" xmlns="http://www.w3.org/2000/svg">
<g filter="url(#filter0_d_108_417)">
<circle cx="56.6922" cy="47.6922" r="38.6922" fill="#B2CBF2"/>
<circle cx="56.6922" cy="47.6922" r="36.5271" stroke="white" stroke-width="4.3301"/>
</g>
<path d="M57.5837 54.3846C57.5837 55.6127 56.6831 56.5777 55.537 56.5777C54.3908 56.5777 53.4902 55.6127 53.4902 54.3846C53.4902 53.1566 55.537 50.4375 55.537 50.4375C55.537 50.4375 57.5837 53.2446 57.5837 54.3846Z" fill="white"/>
<path fill-rule="evenodd" clip-rule="evenodd" d="M41.8698 45.6665C41.7771 45.6604 41.6856 45.6453 41.5956 45.6215C39.685 45.1098 39.2029 40.7103 40.519 35.7971C41.8351 30.8839 44.4518 27.3164 46.3624 27.8281C46.4524 27.852 46.5398 27.8845 46.6234 27.9254C46.7012 27.9281 46.779 27.9397 46.8567 27.9601L48.6016 28.4278L48.6435 28.4401C50.0179 28.873 50.592 30.187 50.898 31.6944C51.1252 32.8171 51.2511 34.2897 51.3391 36.1318L52.5385 36.4531C52.6536 35.9469 52.8951 35.4782 53.2405 35.0908C53.5859 34.7033 54.0239 34.4097 54.5136 34.2375C54.5781 31.4386 55.4561 29.5228 57.0075 28.5578C58.5927 27.5723 60.5197 27.8107 62.0968 28.5271C63.6871 29.2506 65.1525 30.5534 65.9416 32.0946C66.75 33.6736 66.8759 35.5955 65.5424 37.2626C64.6419 38.3873 64.3298 39.4117 64.3349 40.2938C64.342 41.1841 64.6746 42.0325 65.2416 42.7888C66.4144 44.3504 68.4253 45.3216 69.86 45.3216C70.1315 45.3216 70.3918 45.4294 70.5837 45.6214C70.7756 45.8133 70.8834 46.0736 70.8834 46.345C70.8834 46.6164 70.7756 46.8767 70.5837 47.0686C70.3918 47.2605 70.1315 47.3684 69.86 47.3684C67.713 47.3684 65.1198 46.037 63.6042 44.0168C62.8285 42.9832 62.2984 41.7194 62.2892 40.3081C62.2789 38.8867 62.7978 37.4171 63.9439 35.9834C64.6572 35.092 64.6552 34.0717 64.12 33.0279C63.5673 31.9472 62.4723 30.9474 61.2494 30.3907C60.0111 29.8278 58.8691 29.8104 58.0872 30.2965C57.3667 30.7447 56.6238 31.8316 56.5603 34.2406C57.1581 34.4529 57.6754 34.8451 58.0411 35.3633C58.4069 35.8815 58.6032 36.5003 58.603 37.1347V42.2515C59.8453 43.1848 60.6497 44.6708 60.6497 46.345V47.2558L63.0567 49.1593V56.1949L64.5682 63.2951C65.2406 65.4882 63.9706 68.8591 60.7889 68.8591H50.2768C47.0942 68.8591 45.8252 65.4882 46.4975 63.2951L48.009 56.1949V49.1593L50.416 47.2558V46.345C50.4152 45.5505 50.5998 44.7668 50.9551 44.0561C51.3104 43.3455 51.8267 42.7276 52.4628 42.2515V41.7296L49.9657 41.0603C49.0068 42.5442 48.1902 43.7078 47.4554 44.5408C46.4372 45.6931 45.2828 46.5435 43.8767 46.2314L43.8337 46.2212L42.0899 45.7535C42.0134 45.7331 41.9396 45.7039 41.8698 45.6665ZM43.0897 42.4603C43.9626 41.2701 44.852 39.3973 45.4619 37.1214C46.0718 34.8454 46.2376 32.7792 46.0759 31.3117C46.0104 30.7038 45.8948 30.273 45.7822 29.9956C45.5448 30.1798 45.2296 30.495 44.8683 30.9883C43.9964 32.1785 43.1061 34.0523 42.4962 36.3272C41.8872 38.6022 41.7215 40.6694 41.8821 42.1369C41.9486 42.7448 42.0633 43.1756 42.1758 43.4529C42.4133 43.2687 42.7285 42.9535 43.0897 42.4603ZM44.2993 44.2266C45.5202 42.8062 46.6899 40.4463 47.439 37.6515C48.1881 34.8566 48.3549 32.2286 48.008 30.3876L48.0459 30.3978C48.2608 30.4725 48.6139 30.7325 48.8912 32.0997C49.1573 33.4075 49.277 35.356 49.3722 38.1693C47.8832 40.5589 46.8035 42.186 45.9214 43.1859C44.9973 44.2317 44.5603 44.2809 44.3372 44.2369L44.2993 44.2266ZM55.5329 43.2749C54.7186 43.2749 53.9377 43.5983 53.362 44.1741C52.7862 44.7499 52.4628 45.5308 52.4628 46.345H58.603C58.603 45.5308 58.2795 44.7499 57.7038 44.1741C57.128 43.5983 56.3471 43.2749 55.5329 43.2749ZM56.5562 41.2281V37.1347C56.5562 36.8632 56.4484 36.6029 56.2565 36.411C56.0646 36.2191 55.8043 36.1113 55.5329 36.1113C55.2614 36.1113 55.0012 36.2191 54.8092 36.411C54.6173 36.6029 54.5095 36.8632 54.5095 37.1347V41.2281H56.5562ZM52.2785 48.3917L50.0558 50.1499V56.4109L49.1112 60.8451C50.5531 61.3087 53.5352 61.9708 55.9105 60.5279C58.2468 59.1085 60.6456 59.7256 61.8153 60.1881L61.0099 56.4109V50.1499L58.7872 48.3917H52.2785Z" fill="white"/>
<defs>
<filter id="filter0_d_108_417" x="0.67959" y="0.339795" width="112.026" height="112.026" filterUnits="userSpaceOnUse" color-interpolation-filters="sRGB">
<feFlood flood-opacity="0" result="BackgroundImageFix"/>
<feColorMatrix in="SourceAlpha" type="matrix" values="0 0 0 0 0 0 0 0 0 0 0 0 0 0 0 0 0 0 127 0" result="hardAlpha"/>
<feOffset dy="8.6602"/>
<feGaussianBlur stdDeviation="8.6602"/>
<feComposite in2="hardAlpha" operator="out"/>
<feColorMatrix type="matrix" values="0 0 0 0 0 0 0 0 0 0 0 0 0 0 0 0 0 0 0.18 0"/>
<feBlend mode="normal" in2="BackgroundImageFix" result="effect1_dropShadow_108_417"/>
<feBlend mode="normal" in="SourceGraphic" in2="effect1_dropShadow_108_417" result="shape"/>
</filter>
</defs>
</svg>
