<svg width="86" height="39" viewBox="0 0 86 39" fill="none" xmlns="http://www.w3.org/2000/svg">
<rect x="0.845703" width="39" height="39" rx="10" fill="white"/>
<path fill-rule="evenodd" clip-rule="evenodd" d="M21.4314 10.3181C21.8552 10.5418 22.3494 10.902 22.8769 11.2863L25.2175 12.9917C25.579 13.2549 25.9435 13.5204 26.2073 13.7781C26.5045 14.0684 26.8457 14.5106 26.8457 15.1377C26.8457 15.7647 26.5045 16.207 26.2073 16.4973C25.9435 16.755 25.579 17.0204 25.2175 17.2836L21.4892 19.9999L25.2175 22.7164C25.579 22.9796 25.9435 23.2451 26.2073 23.5027C26.5045 23.793 26.8457 24.2353 26.8457 24.8624C26.8457 25.4894 26.5045 25.9316 26.2073 26.2219C25.9435 26.4797 25.579 26.7451 25.2175 27.0084L22.8769 28.7137C22.3494 29.0981 21.8552 29.4582 21.4314 29.6818C20.9983 29.9106 20.2844 30.1892 19.5279 29.8218C18.773 29.4551 18.5751 28.7356 18.5037 28.2632C18.4338 27.8001 18.4338 27.2003 18.4339 26.5595V22.372L15.7271 24.5568C15.2405 24.9496 14.5172 24.8859 14.1116 24.4146C13.706 23.9432 13.7718 23.2427 14.2585 22.8498L17.7893 19.9999L14.2585 17.1502C13.7718 16.7574 13.706 16.0568 14.1116 15.5855C14.5172 15.1141 15.2405 15.0504 15.7271 15.4432L18.4339 17.628V13.4404C18.4338 12.7996 18.4338 12.1999 18.5037 11.7369C18.5751 11.2644 18.773 10.5449 19.5279 10.1782C20.2844 9.8108 20.9983 10.0894 21.4314 10.3181ZM20.7281 26.4831V22.2259L23.7857 24.4535C23.9932 24.6048 24.1582 24.725 24.2966 24.8317L24.3361 24.8624L24.2966 24.8929C24.1582 24.9995 23.9932 25.1198 23.7857 25.2711L21.561 26.8918C21.2138 27.1448 20.9489 27.3366 20.7377 27.4802C20.7291 27.2291 20.7281 26.9067 20.7281 26.4831ZM20.2145 27.7863C20.21 27.7878 20.2081 27.7883 20.2081 27.7883L20.2145 27.7863ZM20.7998 28.0687C20.8015 28.0725 20.8021 28.0749 20.8021 28.0749L20.7998 28.0687ZM20.7281 13.5169V17.7741L23.7857 15.5464C23.9932 15.3952 24.1582 15.2749 24.2966 15.1683L24.3361 15.1377L24.2966 15.1071C24.1582 15.0005 23.9932 14.8801 23.7857 14.7289L21.561 13.1081C21.2138 12.8552 20.9489 12.6634 20.7377 12.5198C20.7291 12.7709 20.7281 13.0933 20.7281 13.5169ZM20.7998 11.9314C20.8015 11.9274 20.8021 11.9251 20.8021 11.9251L20.8012 11.9275L20.7998 11.9314Z" fill="#5B99F9"/>
<rect x="46.8457" width="39" height="39" rx="10" fill="white"/>
<path d="M66.3457 30C64.2244 30 63.1637 30 62.5047 29.4923C61.8457 28.9846 61.8457 28.1675 61.8457 26.5333L61.8457 23.5L61.8457 20.4667C61.8457 18.8325 61.8457 18.0154 62.5047 17.5077C63.1637 17 64.2244 17 66.3457 17C68.467 17 69.5277 17 70.1867 17.5077C70.8457 18.0154 70.8457 18.8325 70.8457 20.4667L70.8457 23.5L70.8457 26.5333C70.8457 28.1675 70.8457 28.9846 70.1867 29.4923C69.5277 30 68.467 30 66.3457 30Z" fill="#3CD556"/>
<path d="M65.2617 9.5L67.5395 9.5" stroke="#676767" stroke-width="2" stroke-linecap="round" stroke-linejoin="round"/>
<path d="M66.4013 30C64.2538 30 63.18 30 62.5129 29.3329C61.8457 28.6657 61.8457 27.592 61.8457 25.4444L61.8457 21.4583L61.8457 17.4722C61.8457 15.3247 61.8457 14.251 62.5129 13.5838C63.18 12.9167 64.2538 12.9167 66.4013 12.9167C68.5487 12.9167 69.6225 12.9167 70.2897 13.5838C70.9568 14.251 70.9568 15.3247 70.9568 17.4722L70.9568 21.4583L70.9568 25.4444C70.9568 27.592 70.9568 28.6657 70.2897 29.3328C69.6225 30 68.5487 30 66.4013 30Z" stroke="#676767" stroke-width="2" stroke-linejoin="round"/>
</svg>
