<svg width="26" height="26" viewBox="0 0 26 26" fill="none" xmlns="http://www.w3.org/2000/svg">
<g id="Group 1527">
<path id="Vector" d="M8.83333 10.1389C8.83333 9.36425 9.06305 8.607 9.49341 7.96291C9.92379 7.31881 10.5355 6.81681 11.2512 6.52036C11.9668 6.22392 12.7543 6.14636 13.5141 6.29749C14.2738 6.44861 14.9718 6.82163 15.5195 7.36939C16.0673 7.91715 16.4403 8.61503 16.5915 9.37479C16.7425 10.1345 16.665 10.9221 16.3685 11.6378C16.0721 12.3534 15.5701 12.9652 14.926 13.3955C14.2819 13.8259 13.5246 14.0556 12.75 14.0556V15.3611M24.5 12.75C24.5 19.2394 19.2394 24.5 12.75 24.5C6.26066 24.5 1 19.2394 1 12.75C1 6.26066 6.26066 1 12.75 1C19.2394 1 24.5 6.26066 24.5 12.75Z" stroke="#881d91" stroke-width="2" stroke-linecap="round" stroke-linejoin="round"/>
<path id="Vector_2" d="M12.7509 20.5838C13.4719 20.5838 14.0564 19.9993 14.0564 19.2782C14.0564 18.5572 13.4719 17.9727 12.7509 17.9727C12.0298 17.9727 11.4453 18.5572 11.4453 19.2782C11.4453 19.9993 12.0298 20.5838 12.7509 20.5838Z" fill="#881d91"/>
</g>
</svg>
