<svg width="32" height="32" viewBox="0 0 32 32" fill="none" xmlns="http://www.w3.org/2000/svg">
<path d="M14.4375 19.5937C14.4375 20.3812 15.015 21 15.75 21C16.485 21 17.0625 20.3812 17.0625 19.5937C17.0625 18.8062 15.75 17.0625 15.75 17.0625C15.75 17.0625 14.4375 18.8626 14.4375 19.5937Z" fill="#685F84"/>
<path fill-rule="evenodd" clip-rule="evenodd" d="M24.5136 14.0036C24.5731 13.9997 24.6317 13.9901 24.6895 13.9747C25.9147 13.6466 26.2238 10.8254 25.3799 7.67474C24.5359 4.52408 22.8579 2.23639 21.6327 2.56452C21.575 2.57982 21.519 2.6007 21.4653 2.62686C21.4155 2.62861 21.3656 2.63605 21.3157 2.64918L20.1968 2.94908L20.1699 2.95696C19.2886 3.23455 18.9204 4.07718 18.7242 5.04383C18.5785 5.76374 18.4978 6.70808 18.4413 7.88933L17.6722 8.09539C17.5984 7.77081 17.4435 7.47024 17.222 7.22177C17.0005 6.9733 16.7197 6.78505 16.4057 6.67461C16.3643 4.87977 15.8012 3.65127 14.8064 3.03243C13.7898 2.40046 12.5541 2.55336 11.5428 3.01274C10.523 3.47671 9.58328 4.31211 9.07731 5.30043C8.55887 6.31302 8.47815 7.54546 9.33325 8.61449C9.91075 9.33571 10.1109 9.99261 10.1076 10.5583C10.103 11.1292 9.88975 11.6733 9.52618 12.1582C8.77412 13.1597 7.48459 13.7825 6.56453 13.7825C6.39048 13.7825 6.22356 13.8516 6.10049 13.9747C5.97742 14.0977 5.90828 14.2647 5.90828 14.4387C5.90828 14.6128 5.97742 14.7797 6.10049 14.9027C6.22356 15.0258 6.39048 15.095 6.56453 15.095C7.94134 15.095 9.60428 14.2412 10.5762 12.9457C11.0736 12.2829 11.4136 11.4725 11.4195 10.5675C11.426 9.65596 11.0933 8.71358 10.3583 7.79418C9.9009 7.22258 9.90222 6.5683 10.2454 5.89893C10.5998 5.20593 11.302 4.56477 12.0862 4.20777C12.8803 3.84683 13.6127 3.83568 14.114 4.14739C14.576 4.43483 15.0525 5.13177 15.0932 6.67658C14.7098 6.81271 14.3781 7.06423 14.1436 7.39655C13.909 7.72888 13.7831 8.1257 13.7833 8.53246V11.8137C12.9866 12.4122 12.4708 13.3651 12.4708 14.4387V15.0228L10.9273 16.2434V20.7551L9.958 25.3082C9.52684 26.7145 10.3412 28.8762 12.3815 28.8762H19.1225C21.1635 28.8762 21.9772 26.7145 21.5461 25.3082L20.5768 20.7551V16.2434L19.0333 15.0228V14.4387C19.0338 13.9292 18.9154 13.4266 18.6876 12.9709C18.4597 12.5152 18.1287 12.119 17.7208 11.8137V11.479L19.322 11.0498C19.9369 12.0014 20.4606 12.7476 20.9318 13.2817C21.5848 14.0207 22.325 14.566 23.2267 14.3659L23.2543 14.3593L24.3725 14.0594C24.4216 14.0463 24.4689 14.0276 24.5136 14.0036ZM23.7314 11.9476C23.1716 11.1844 22.6013 9.98343 22.2102 8.52393C21.8191 7.06443 21.7127 5.73946 21.8164 4.79839C21.8584 4.40858 21.9326 4.1323 22.0048 3.95446C22.157 4.07258 22.3592 4.27471 22.5908 4.59102C23.1499 5.35424 23.7209 6.55583 24.112 8.01468C24.5025 9.47352 24.6088 10.7991 24.5057 11.7402C24.4631 12.13 24.3896 12.4063 24.3174 12.5841C24.1652 12.466 23.963 12.2639 23.7314 11.9476ZM22.9557 13.0803C22.1728 12.1694 21.4227 10.6561 20.9423 8.86386C20.4619 7.07164 20.355 5.38639 20.5774 4.2058L20.5532 4.21236C20.4153 4.26027 20.1889 4.42696 20.0111 5.30371C19.8405 6.14239 19.7637 7.39189 19.7027 9.19593C20.6575 10.7283 21.3498 11.7717 21.9155 12.4129C22.5081 13.0836 22.7883 13.1151 22.9314 13.0868L22.9557 13.0803ZM15.752 12.47C16.2742 12.47 16.7749 12.6774 17.1441 13.0466C17.5134 13.4158 17.7208 13.9166 17.7208 14.4387H13.7833C13.7833 13.9166 13.9907 13.4158 14.3599 13.0466C14.7291 12.6774 15.2299 12.47 15.752 12.47ZM15.0958 11.1575V8.53246C15.0958 8.35841 15.1649 8.19149 15.288 8.06842C15.4111 7.94535 15.578 7.87621 15.752 7.87621C15.9261 7.87621 16.093 7.94535 16.2161 8.06842C16.3391 8.19149 16.4083 8.35841 16.4083 8.53246V11.1575H15.0958ZM17.8389 15.7512L19.2643 16.8786V20.8936L19.87 23.7371C18.9453 24.0344 17.033 24.459 15.5099 23.5337C14.0117 22.6235 12.4734 23.0192 11.7233 23.3158L12.2398 20.8936V16.8786L13.6652 15.7512H17.8389Z" fill="#685F84"/>
</svg>
